<svg id="Layer_1" data-name="Layer 1" xmlns="http://www.w3.org/2000/svg" xmlns:xlink="http://www.w3.org/1999/xlink" viewBox="0 0 1909 87.33"><defs><style>.cls-1{fill:none;}.cls-2{clip-path:url(#clip-path);}.cls-3{fill:#3d4f84;}.cls-4{fill:#33457a;}.cls-5{fill:#1e3065;}.cls-6{opacity:0;}</style><clipPath id="clip-path"><rect class="cls-1" width="1909" height="100"/></clipPath></defs><g class="cls-2"><g id="Group_10808" data-name="Group 10808"><g id="Group_10789" data-name="Group 10789"><path id="Path_14401" data-name="Path 14401" class="cls-3" d="M30.38,54.65A4.57,4.57,0,0,0,34.63,54a4.74,4.74,0,0,0,1.8-3.8c0-3,0-6,0-8.93a4.54,4.54,0,0,0-9.08.12v.12c0,3,0,6,0,9A4.54,4.54,0,0,0,30.38,54.65Z"/><path id="Path_14411" data-name="Path 14411" class="cls-3" d="M75.41,54.6a4.55,4.55,0,0,0,4.45-.68,4.68,4.68,0,0,0,1.72-3.76c0-3,0-5.95,0-8.92a4.54,4.54,0,1,0-9.08.06v.18c0,3,0,6,0,9A4.56,4.56,0,0,0,75.41,54.6Z"/><path id="Path_14402" data-name="Path 14402" class="cls-3" d="M4.77,18.71a4.53,4.53,0,0,0,9.05-.28c0-2.75,0-5.51,0-8.26a6.39,6.39,0,0,1-1.87,3,4.56,4.56,0,0,1-5.16.33,5.56,5.56,0,0,1-2-2.43Q4.73,14.87,4.77,18.71Z"/><path id="Path_14412" data-name="Path 14412" class="cls-3" d="M75.41,22.61a4.54,4.54,0,0,0,4.46-.67,4.68,4.68,0,0,0,1.71-3.75c0-3,0-6,0-9a4.54,4.54,0,0,0-9.07,0q0,4.59,0,9.18A4.53,4.53,0,0,0,75.41,22.61Z"/><path id="Path_14431" data-name="Path 14431" class="cls-3" d="M143.14,54.76a4.55,4.55,0,0,0,4.46-.68,4.72,4.72,0,0,0,1.72-3.75c0-3,0-6,0-8.94a4.54,4.54,0,0,0-9.07,0q0,4.59,0,9.18A4.54,4.54,0,0,0,143.14,54.76Z"/><path id="Path_14419" data-name="Path 14419" class="cls-4" d="M97.89,45.65a4.46,4.46,0,0,0,5.41-1.6,4.75,4.75,0,0,0-1.19-6.6,4.58,4.58,0,0,0-6.28,1.32,4.79,4.79,0,0,0,1.53,6.6A4.44,4.44,0,0,0,97.89,45.65Z"/><path id="Path_14429" data-name="Path 14429" class="cls-4" d="M75.5,72.06a4.49,4.49,0,0,0,5.41-1.6,4.74,4.74,0,0,0-1.19-6.6,4.58,4.58,0,0,0-6.28,1.31A4.79,4.79,0,0,0,75,71.77,5.45,5.45,0,0,0,75.5,72.06Z"/><path id="Path_14405" data-name="Path 14405" class="cls-4" d="M6.79,13.47A4.56,4.56,0,0,0,12,13.14a6.47,6.47,0,0,0,1.87-3A4.7,4.7,0,0,0,10.2,4.84a4.52,4.52,0,0,0-4.93,2.4A6.36,6.36,0,0,0,4.78,11,5.53,5.53,0,0,0,6.79,13.47Z"/><g id="Group_10793" data-name="Group 10793"><path id="Path_14418" data-name="Path 14418" class="cls-3" d="M95.1,18.7a4.54,4.54,0,0,0,9.07-.5c0-3.26.11-6.54-.08-9.79a5.59,5.59,0,0,1-1.28,4.26,4.59,4.59,0,0,1-6.21.43,7.67,7.67,0,0,1-1.52-2C95.11,13.63,95.05,16.17,95.1,18.7Z"/><path id="Path_14420" data-name="Path 14420" class="cls-4" d="M96.6,13.1a4.59,4.59,0,0,0,6.21-.43,5.6,5.6,0,0,0,1.28-4.26,4.56,4.56,0,0,0-4.67-3.67,4.71,4.71,0,0,0-4.36,4.48c0,.62,0,1.24,0,1.87A7.67,7.67,0,0,0,96.6,13.1Z"/></g><path id="Path_14407" data-name="Path 14407" class="cls-4" d="M30.1,13.69a4.66,4.66,0,0,0,4.25-8.23,4.51,4.51,0,0,0-4.9,0,4.85,4.85,0,0,0-2,5.1A4.62,4.62,0,0,0,30.1,13.69Z"/><path id="Path_14408" data-name="Path 14408" class="cls-4" d="M52.62,13.66A4.68,4.68,0,0,0,58.7,11a4.37,4.37,0,0,0,.26-.94,4.61,4.61,0,0,0-3.8-5.29,3.87,3.87,0,0,0-.49,0,4.73,4.73,0,0,0-4.79,4.68,5,5,0,0,0,.06.86A4.61,4.61,0,0,0,52.62,13.66Z"/><g id="Group_10791" data-name="Group 10791"><path id="Path_14425" data-name="Path 14425" class="cls-5" d="M117.76,19.59a4.44,4.44,0,0,0,8.69-.29c.13-2.75.07-5.51,0-8.26a4.79,4.79,0,0,1-2.21,2.46,4.6,4.6,0,0,1-5.52-1.12,4.87,4.87,0,0,1-.94-4.24c-.44,2.14-.17,4.34-.24,6.5A26.44,26.44,0,0,0,117.76,19.59Z"/><path id="Path_14427" data-name="Path 14427" class="cls-4" d="M118.75,12.38a4.58,4.58,0,0,0,5.51,1.12A4.79,4.79,0,0,0,126.47,11,4.58,4.58,0,0,0,118,7.6q-.11.27-.18.54A4.85,4.85,0,0,0,118.75,12.38Z"/></g></g><g id="Group_10801" data-name="Group 10801"><path id="Path_14401-2" data-name="Path 14401-2" class="cls-3" d="M205.13,86.15a4.54,4.54,0,0,0,4.24-.67,4.73,4.73,0,0,0,1.8-3.8c0-3,0-6,0-8.94a4.54,4.54,0,1,0-9.08.12.49.49,0,0,0,0,.12c0,3,0,6,0,9A4.54,4.54,0,0,0,205.13,86.15Z"/><path id="Path_14411-2" data-name="Path 14411-2" class="cls-3" d="M250.16,86.11a4.56,4.56,0,0,0,4.44-.68,4.69,4.69,0,0,0,1.73-3.76c0-3,0-6,0-8.93a4.54,4.54,0,0,0-9.08.06,1.09,1.09,0,0,0,0,.18c0,3,0,6,0,9A4.55,4.55,0,0,0,250.16,86.11Z"/><path id="Path_14402-2" data-name="Path 14402-2" class="cls-3" d="M179.52,50.21a4.53,4.53,0,0,0,9-.27c0-2.76,0-5.51,0-8.27a6.27,6.27,0,0,1-1.86,3,4.56,4.56,0,0,1-5.17.34,5.57,5.57,0,0,1-2-2.44C179.49,45.1,179.48,47.66,179.52,50.21Z"/><path id="Path_14412-2" data-name="Path 14412-2" class="cls-3" d="M250.15,54.12a4.55,4.55,0,0,0,4.46-.68,4.72,4.72,0,0,0,1.72-3.75c0-3,0-6,0-8.94a4.54,4.54,0,0,0-9.07,0q0,4.59,0,9.18A4.54,4.54,0,0,0,250.15,54.12Z"/><path id="Path_14400-2" data-name="Path 14400-2" class="cls-4" d="M159.85,77.21a4.45,4.45,0,0,0,5.25-1.61,4.76,4.76,0,0,0-.93-6.48,4.58,4.58,0,0,0-6.4,1c-.05.07-.09.14-.14.2a4.8,4.8,0,0,0,1.58,6.57A5.46,5.46,0,0,0,159.85,77.21Z"/><path id="Path_14430-2" data-name="Path 14430-2" class="cls-4" d="M318,13.44a4.46,4.46,0,0,0,5.41-1.6,4.75,4.75,0,0,0-1.19-6.6,4.58,4.58,0,0,0-6.28,1.32,4.79,4.79,0,0,0,1.53,6.6A3.84,3.84,0,0,0,318,13.44Z"/><path id="Path_14405-2" data-name="Path 14405-2" class="cls-4" d="M181.53,45a4.56,4.56,0,0,0,5.17-.34,6.27,6.27,0,0,0,1.86-3A4.69,4.69,0,0,0,185,36.34a4.56,4.56,0,0,0-4.94,2.4,6.37,6.37,0,0,0-.49,3.8A5.57,5.57,0,0,0,181.53,45Z"/><g id="Group_10793-2" data-name="Group 10793-2"><path id="Path_14418-2" data-name="Path 14418-2" class="cls-3" d="M269.85,50.2a4.54,4.54,0,0,0,9.07-.5c-.06-3.26.1-6.53-.09-9.79a5.61,5.61,0,0,1-1.28,4.27,4.57,4.57,0,0,1-6.2.43,8,8,0,0,1-1.53-2C269.85,45.13,269.79,47.67,269.85,50.2Z"/><path id="Path_14420-2" data-name="Path 14420-2" class="cls-4" d="M271.35,44.61a4.58,4.58,0,0,0,6.21-.44,5.61,5.61,0,0,0,1.27-4.26,4.55,4.55,0,0,0-4.67-3.66,4.73,4.73,0,0,0-4.36,4.48c0,.62,0,1.24,0,1.86A7.92,7.92,0,0,0,271.35,44.61Z"/></g><g id="Group_10796-2" data-name="Group 10796-2"><path id="Path_14403-2" data-name="Path 14403-2" class="cls-5" d="M160.24,54.36A4.48,4.48,0,0,0,165.62,51a4.8,4.8,0,0,0,.11-.76c0-2.51,0-5,0-7.53a5.59,5.59,0,0,1-2,2.22,4.58,4.58,0,0,1-5.42-.77,6.52,6.52,0,0,1-1.41-2.58l-.05.36v8.35A4.85,4.85,0,0,0,160.24,54.36Z"/><path id="Path_14406-2" data-name="Path 14406-2" class="cls-4" d="M158.24,44.15a4.58,4.58,0,0,0,5.42.77,5.59,5.59,0,0,0,2-2.22,5.2,5.2,0,0,0-.38-4.29,4.5,4.5,0,0,0-6.17-1.51,5.11,5.11,0,0,0-2.32,4.67A6.52,6.52,0,0,0,158.24,44.15Z"/></g><path id="Path_14407-2" data-name="Path 14407-2" class="cls-4" d="M204.85,45.19A4.65,4.65,0,0,0,209.09,37a4.49,4.49,0,0,0-4.89,0,4.83,4.83,0,0,0-2,5.1A4.56,4.56,0,0,0,204.85,45.19Z"/><path id="Path_14408-2" data-name="Path 14408-2" class="cls-4" d="M227.37,45.17a4.7,4.7,0,0,0,6.08-2.63,5.13,5.13,0,0,0,.26-.95,4.6,4.6,0,0,0-3.8-5.28l-.49-.06a4.75,4.75,0,0,0-4.8,4.69,4.88,4.88,0,0,0,.07.85A4.62,4.62,0,0,0,227.37,45.17Z"/><g id="Group_10791-2" data-name="Group 10791-2"><path id="Path_14425-2" data-name="Path 14425-2" class="cls-5" d="M292.51,51.1a4.43,4.43,0,0,0,8.68-.29c.14-2.75.08-5.51,0-8.26A4.85,4.85,0,0,1,299,45a4.58,4.58,0,0,1-5.52-1.13,4.79,4.79,0,0,1-.94-4.23c-.45,2.14-.17,4.33-.25,6.5A26.44,26.44,0,0,0,292.51,51.1Z"/><path id="Path_14427-2" data-name="Path 14427-2" class="cls-4" d="M293.49,43.88A4.58,4.58,0,0,0,299,45a4.91,4.91,0,0,0,2.21-2.46,4.58,4.58,0,0,0-8.49-3.44,4.69,4.69,0,0,0,.76,4.77Z"/></g><path id="Path_14414-2" data-name="Path 14414-2" class="cls-4" d="M160.45,13.43A4.61,4.61,0,0,0,166,9.05a4.65,4.65,0,0,0-4.45-4.84h-.38a4.7,4.7,0,0,0-.69,9.22Z"/><g id="Group_10794-2" data-name="Group 10794-2"><path id="Path_14409-3" data-name="Path 14409-3" class="cls-3" d="M204.77,22.05a4.56,4.56,0,0,0,6.39-4.35c0-2.64,0-5.27,0-7.9a5.23,5.23,0,0,1-1.83,3,4.58,4.58,0,0,1-5.36,0,5.49,5.49,0,0,1-1.88-2.73c0,2.65,0,5.3,0,8A4.59,4.59,0,0,0,204.77,22.05Z"/><path id="Path_14415-3" data-name="Path 14415-3" class="cls-4" d="M204,12.78a4.55,4.55,0,0,0,5.36,0,5.2,5.2,0,0,0,1.83-3,6,6,0,0,0-.52-3.13,4.87,4.87,0,0,0-4-2.48,4.77,4.77,0,0,0-3.91,2.28,6.44,6.44,0,0,0-.66,3.58A5.45,5.45,0,0,0,204,12.78Z"/></g><path id="Path_14416-2" data-name="Path 14416-2" class="cls-4" d="M228.2,13.43a4.6,4.6,0,0,0,5.44-3.57,5.15,5.15,0,0,0,.09-1.11,4.55,4.55,0,0,0-4.6-4.49,4.66,4.66,0,0,0-.93,9.17Z"/><g id="Group_10790-2" data-name="Group 10790-2"><path id="Path_14423-2" data-name="Path 14423-2" class="cls-3" d="M294.67,21.83a4.58,4.58,0,0,0,5.14-.4A4.53,4.53,0,0,0,301.49,18c0-2.65,0-5.31,0-8a5.65,5.65,0,0,1-2.05,2.87,4.59,4.59,0,0,1-5.48-.39,5.16,5.16,0,0,1-1.54-2.68c0,2.7,0,5.41,0,8.11A4.63,4.63,0,0,0,294.67,21.83Z"/><path id="Path_14428-2" data-name="Path 14428-2" class="cls-4" d="M294,12.52a4.59,4.59,0,0,0,5.48.39A5.54,5.54,0,0,0,301.49,10,6.66,6.66,0,0,0,301,6.79a4.85,4.85,0,0,0-4.14-2.6,4.72,4.72,0,0,0-3.84,2.34,5.92,5.92,0,0,0-.63,3.3A5.22,5.22,0,0,0,294,12.52Z"/></g><g id="Group_10795-2" data-name="Group 10795-2"><path id="Path_14410-2" data-name="Path 14410-2" class="cls-5" d="M180.2,20.29a4.48,4.48,0,0,0,5.29,2,4.68,4.68,0,0,0,3-4.55c0-2.55,0-5.1,0-7.65a4.56,4.56,0,0,1-8.91-.27c0,2.55,0,5.1,0,7.65A5.47,5.47,0,0,0,180.2,20.29Z"/><path id="Path_14417-2" data-name="Path 14417-2" class="cls-4" d="M179.56,9.78a4.57,4.57,0,0,0,8.92.27,5.72,5.72,0,0,0-.31-3.14,4.84,4.84,0,0,0-4.28-2.72,4.74,4.74,0,0,0-4.4,5A5.35,5.35,0,0,0,179.56,9.78Z"/></g><g id="Group_10798-2" data-name="Group 10798-2" class="cls-6"><path id="Path_14422-2" data-name="Path 14422-2" class="cls-5" d="M269.9,18.25a4.56,4.56,0,0,0,4.82,4.24,4.46,4.46,0,0,0,3.7-2.68c.6-1.25.39-2.67.42-4,0-1.81.06-3.62,0-5.44a4.89,4.89,0,0,1-4.4,3.15A4.63,4.63,0,0,1,269.91,10C269.87,12.73,269.88,15.49,269.9,18.25Z"/><path id="Path_14421-2" data-name="Path 14421-2" class="cls-4" d="M269.91,10a4.64,4.64,0,0,0,4.5,3.52,4.89,4.89,0,0,0,4.39-3.15,6,6,0,0,0-.42-3.68,4.89,4.89,0,0,0-4-2.48,4.73,4.73,0,0,0-4,2.45A5.49,5.49,0,0,0,269.91,10Z"/></g></g><g id="Group_10802" data-name="Group 10802"><path id="Path_14401-3" data-name="Path 14401-3" class="cls-3" d="M379.87,22.39a4.57,4.57,0,0,0,4.25-.68,4.74,4.74,0,0,0,1.8-3.8c0-3,0-5.95,0-8.93a4.54,4.54,0,1,0-9.08.12v.12c0,3,0,6,0,9A4.54,4.54,0,0,0,379.87,22.39Z"/><path id="Path_14411-3" data-name="Path 14411-3" class="cls-3" d="M424.9,22.34a4.55,4.55,0,0,0,4.45-.68,4.72,4.72,0,0,0,1.73-3.76c0-3,0-5.95,0-8.92A4.54,4.54,0,0,0,422,9v.18c0,3,0,6,0,9A4.56,4.56,0,0,0,424.9,22.34Z"/><path id="Path_14431-2" data-name="Path 14431-2" class="cls-3" d="M492.63,22.5a4.55,4.55,0,0,0,4.46-.68,4.72,4.72,0,0,0,1.72-3.75c0-3,0-6,0-8.94a4.54,4.54,0,0,0-9.07,0q0,4.59,0,9.18A4.54,4.54,0,0,0,492.63,22.5Z"/><path id="Path_14400-3" data-name="Path 14400-3" class="cls-4" d="M334.59,13.44a4.46,4.46,0,0,0,5.26-1.61,4.77,4.77,0,0,0-.93-6.47,4.58,4.58,0,0,0-6.4,1l-.14.21A4.76,4.76,0,0,0,334,13.12,4.65,4.65,0,0,0,334.59,13.44Z"/><path id="Path_14419-2" data-name="Path 14419-2" class="cls-4" d="M447.38,13.39a4.46,4.46,0,0,0,5.41-1.6,4.75,4.75,0,0,0-1.19-6.6,4.58,4.58,0,0,0-6.28,1.32,4.79,4.79,0,0,0,1.53,6.6A5.36,5.36,0,0,0,447.38,13.39Z"/><path id="Path_14429-2" data-name="Path 14429-2" class="cls-4" d="M425,39.8a4.48,4.48,0,0,0,5.41-1.6,4.74,4.74,0,0,0-1.19-6.6,4.58,4.58,0,0,0-6.28,1.31,4.79,4.79,0,0,0,1.53,6.6A5.45,5.45,0,0,0,425,39.8Z"/><g id="Group_10812" data-name="Group 10812"><path id="Path_14402-3" data-name="Path 14402-3" class="cls-3" d="M354.26,18.45a4.54,4.54,0,0,0,9.06-.28c0-2.75,0-5.51,0-8.26a6.45,6.45,0,0,1-1.86,3,4.57,4.57,0,0,1-5.17.33,5.54,5.54,0,0,1-2-2.43Q354.21,14.61,354.26,18.45Z"/><path id="Path_14405-3" data-name="Path 14405-3" class="cls-4" d="M356.28,13.21a4.57,4.57,0,0,0,5.17-.33,6.45,6.45,0,0,0,1.86-3,4.7,4.7,0,0,0-3.62-5.33A4.53,4.53,0,0,0,354.76,7a6.36,6.36,0,0,0-.49,3.8A5.48,5.48,0,0,0,356.28,13.21Z"/></g></g><g id="Group_10803" data-name="Group 10803"><path id="Path_14401-4" data-name="Path 14401-4" class="cls-3" d="M554.62,54.37a4.54,4.54,0,0,0,4.24-.68,4.71,4.71,0,0,0,1.8-3.8c0-3,0-6,0-8.93a4.55,4.55,0,0,0-9.09.12s0,.08,0,.12c0,3,0,6,0,9A4.54,4.54,0,0,0,554.62,54.37Z"/><path id="Path_14411-4" data-name="Path 14411-4" class="cls-3" d="M599.65,54.32a4.56,4.56,0,0,0,4.44-.67,4.69,4.69,0,0,0,1.73-3.77c0-3,0-6,0-8.92a4.54,4.54,0,1,0-9.08.06,1.09,1.09,0,0,0,0,.18c0,3,0,6,0,8.95A4.52,4.52,0,0,0,599.65,54.32Z"/><path id="Path_14402-4" data-name="Path 14402-4" class="cls-3" d="M529,18.43a4.53,4.53,0,0,0,9-.28c0-2.75,0-5.51,0-8.26a6.37,6.37,0,0,1-1.86,3,4.57,4.57,0,0,1-5.17.33,5.54,5.54,0,0,1-2-2.43C529,13.31,529,15.87,529,18.43Z"/><path id="Path_14412-4" data-name="Path 14412-4" class="cls-3" d="M599.64,22.34a4.57,4.57,0,0,0,4.46-.68,4.69,4.69,0,0,0,1.72-3.75c0-3,0-6,0-8.95a4.53,4.53,0,0,0-9.06,0q0,4.59,0,9.18A4.52,4.52,0,0,0,599.64,22.34Z"/><path id="Path_14431-3" data-name="Path 14431-3" class="cls-3" d="M667.38,54.48a4.55,4.55,0,0,0,4.46-.68,4.68,4.68,0,0,0,1.71-3.75c0-3,0-6,0-8.94a4.54,4.54,0,0,0-9.07,0q0,4.59,0,9.18A4.54,4.54,0,0,0,667.38,54.48Z"/><path id="Path_14400-4" data-name="Path 14400-4" class="cls-4" d="M509.34,45.43a4.45,4.45,0,0,0,5.25-1.62,4.75,4.75,0,0,0-.93-6.47,4.58,4.58,0,0,0-6.4,1c-.05.06-.09.13-.14.2a4.78,4.78,0,0,0,1.59,6.56A4.71,4.71,0,0,0,509.34,45.43Z"/><path id="Path_14419-3" data-name="Path 14419-3" class="cls-4" d="M622.12,45.37a4.47,4.47,0,0,0,5.42-1.6,4.75,4.75,0,0,0-1.2-6.6,4.58,4.58,0,0,0-6.28,1.32,4.79,4.79,0,0,0,1.54,6.6A3.25,3.25,0,0,0,622.12,45.37Z"/><path id="Path_14429-3" data-name="Path 14429-3" class="cls-4" d="M599.73,71.78a4.49,4.49,0,0,0,5.42-1.6,4.75,4.75,0,0,0-1.19-6.6,4.59,4.59,0,0,0-6.29,1.32,4.79,4.79,0,0,0,1.54,6.59A5.29,5.29,0,0,0,599.73,71.78Z"/><path id="Path_14405-4" data-name="Path 14405-4" class="cls-4" d="M531,13.19a4.57,4.57,0,0,0,5.17-.33,6.37,6.37,0,0,0,1.86-3,4.69,4.69,0,0,0-3.61-5.33A4.54,4.54,0,0,0,529.5,7a6.36,6.36,0,0,0-.49,3.8A5.54,5.54,0,0,0,531,13.19Z"/><g id="Group_10793-4" data-name="Group 10793-4"><path id="Path_14418-4" data-name="Path 14418-4" class="cls-3" d="M619.34,18.42a4.54,4.54,0,0,0,9.07-.5c0-3.26.11-6.54-.09-9.79a5.61,5.61,0,0,1-1.27,4.26,4.59,4.59,0,0,1-6.21.44,8.16,8.16,0,0,1-1.53-2C619.34,13.35,619.28,15.89,619.34,18.42Z"/><path id="Path_14420-4" data-name="Path 14420-4" class="cls-4" d="M620.84,12.82a4.59,4.59,0,0,0,6.21-.43,5.62,5.62,0,0,0,1.27-4.26,4.53,4.53,0,0,0-4.66-3.66,4.71,4.71,0,0,0-4.37,4.47c0,.62,0,1.24,0,1.87A7.93,7.93,0,0,0,620.84,12.82Z"/></g><g id="Group_10796-4" data-name="Group 10796-4"><path id="Path_14403-4" data-name="Path 14403-4" class="cls-5" d="M509.73,22.57a4.48,4.48,0,0,0,5.38-3.35,5,5,0,0,0,.11-.76c0-2.51,0-5,0-7.53a5.61,5.61,0,0,1-2,2.21,4.6,4.6,0,0,1-5.43-.76,6.59,6.59,0,0,1-1.41-2.58l-.05.36V18.5A4.83,4.83,0,0,0,509.73,22.57Z"/><path id="Path_14406-4" data-name="Path 14406-4" class="cls-4" d="M507.73,12.37a4.59,4.59,0,0,0,5.42.76,5.56,5.56,0,0,0,2-2.21,5.22,5.22,0,0,0-.38-4.3,4.51,4.51,0,0,0-6.17-1.51,5.12,5.12,0,0,0-2.32,4.68A6.52,6.52,0,0,0,507.73,12.37Z"/></g><path id="Path_14407-4" data-name="Path 14407-4" class="cls-4" d="M554.34,13.41a4.66,4.66,0,0,0,4.24-8.23,4.49,4.49,0,0,0-4.89,0,4.85,4.85,0,0,0-2,5.1A4.58,4.58,0,0,0,554.34,13.41Z"/><path id="Path_14408-4" data-name="Path 14408-4" class="cls-4" d="M576.86,13.38a4.69,4.69,0,0,0,6.08-2.63,4.37,4.37,0,0,0,.26-.94,4.61,4.61,0,0,0-3.8-5.29,4.28,4.28,0,0,0-.49,0,4.74,4.74,0,0,0-4.8,4.68,5,5,0,0,0,.07.86A4.59,4.59,0,0,0,576.86,13.38Z"/><g id="Group_10791-4" data-name="Group 10791-4"><path id="Path_14425-4" data-name="Path 14425-4" class="cls-5" d="M642,19.31a4.43,4.43,0,0,0,8.68-.29c.14-2.74.08-5.51,0-8.25a4.85,4.85,0,0,1-2.21,2.45A4.6,4.6,0,0,1,643,12.1,4.87,4.87,0,0,1,642,7.86c-.45,2.14-.17,4.34-.25,6.5A27.28,27.28,0,0,0,642,19.31Z"/><path id="Path_14427-4" data-name="Path 14427-4" class="cls-4" d="M643,12.1a4.6,4.6,0,0,0,5.52,1.12,4.83,4.83,0,0,0,2.21-2.46,4.58,4.58,0,0,0-8.49-3.44q-.11.27-.18.54A4.87,4.87,0,0,0,643,12.1Z"/></g></g><g id="Group_10804" data-name="Group 10804"><path id="Path_14401-5" data-name="Path 14401-5" class="cls-3" d="M729.36,23.39a4.57,4.57,0,0,0,4.25-.68,4.74,4.74,0,0,0,1.8-3.8c0-3,0-5.95,0-8.93a4.54,4.54,0,0,0-9.08.12v.12c0,3,0,6,0,9A4.54,4.54,0,0,0,729.36,23.39Z"/><path id="Path_14411-5" data-name="Path 14411-5" class="cls-3" d="M774.39,23.34a4.55,4.55,0,0,0,4.45-.68,4.72,4.72,0,0,0,1.73-3.76c0-3,0-5.95,0-8.92a4.54,4.54,0,1,0-9.08.06v.18c0,3,0,6,0,9A4.56,4.56,0,0,0,774.39,23.34Z"/><path id="Path_14431-4" data-name="Path 14431-4" class="cls-3" d="M842.12,23.5a4.55,4.55,0,0,0,4.46-.68,4.72,4.72,0,0,0,1.72-3.75c0-3,0-6,0-8.94a4.54,4.54,0,0,0-9.07,0q0,4.59,0,9.18A4.54,4.54,0,0,0,842.12,23.5Z"/><path id="Path_14400-5" data-name="Path 14400-5" class="cls-4" d="M684.08,14.44a4.46,4.46,0,0,0,5.26-1.61,4.77,4.77,0,0,0-.93-6.47,4.58,4.58,0,0,0-6.4,1c0,.07-.1.14-.14.21a4.76,4.76,0,0,0,1.58,6.56A4.65,4.65,0,0,0,684.08,14.44Z"/><path id="Path_14419-4" data-name="Path 14419-4" class="cls-4" d="M796.87,14.39a4.46,4.46,0,0,0,5.41-1.6,4.75,4.75,0,0,0-1.19-6.6,4.58,4.58,0,0,0-6.28,1.32,4.79,4.79,0,0,0,1.53,6.6A5.36,5.36,0,0,0,796.87,14.39Z"/><path id="Path_14429-4" data-name="Path 14429-4" class="cls-4" d="M774.48,40.8a4.48,4.48,0,0,0,5.41-1.6,4.74,4.74,0,0,0-1.19-6.6,4.58,4.58,0,0,0-6.28,1.31,4.79,4.79,0,0,0,1.53,6.6A5.45,5.45,0,0,0,774.48,40.8Z"/></g><g id="Group_10805" data-name="Group 10805"><path id="Path_14401-6" data-name="Path 14401-6" class="cls-3" d="M904.11,54.65a4.54,4.54,0,0,0,4.24-.68,4.71,4.71,0,0,0,1.8-3.8c0-3,0-6,0-8.93a4.55,4.55,0,0,0-9.09.12.49.49,0,0,1,0,.12c0,3,0,6,0,9A4.54,4.54,0,0,0,904.11,54.65Z"/><path id="Path_14411-6" data-name="Path 14411-6" class="cls-3" d="M949.14,54.6a4.53,4.53,0,0,0,4.44-.68,4.66,4.66,0,0,0,1.73-3.76c0-3,0-5.95,0-8.92a4.54,4.54,0,1,0-9.08.06c0,.06,0,.12,0,.18,0,3,0,6,0,9A4.53,4.53,0,0,0,949.14,54.6Z"/><path id="Path_14402-6" data-name="Path 14402-6" class="cls-3" d="M878.5,18.71a4.53,4.53,0,0,0,9-.28c0-2.75,0-5.51,0-8.26a6.37,6.37,0,0,1-1.86,3,4.57,4.57,0,0,1-5.17.33,5.54,5.54,0,0,1-2-2.43C878.47,13.59,878.46,16.15,878.5,18.71Z"/><path id="Path_14412-6" data-name="Path 14412-6" class="cls-3" d="M949.13,22.61a4.54,4.54,0,0,0,4.46-.67,4.69,4.69,0,0,0,1.72-3.75c0-3,0-6,0-9a4.53,4.53,0,0,0-9.06,0q0,4.59,0,9.18A4.51,4.51,0,0,0,949.13,22.61Z"/><path id="Path_14431-5" data-name="Path 14431-5" class="cls-3" d="M1016.87,54.76a4.55,4.55,0,0,0,4.46-.68,4.68,4.68,0,0,0,1.71-3.75c0-3,0-6,0-8.94a4.54,4.54,0,0,0-9.07,0q0,4.59,0,9.18A4.54,4.54,0,0,0,1016.87,54.76Z"/><path id="Path_14400-6" data-name="Path 14400-6" class="cls-4" d="M858.83,45.7a4.45,4.45,0,0,0,5.25-1.61,4.75,4.75,0,0,0-.93-6.47,4.58,4.58,0,0,0-6.4,1c0,.07-.09.14-.14.21a4.78,4.78,0,0,0,1.59,6.56A4.65,4.65,0,0,0,858.83,45.7Z"/><path id="Path_14419-5" data-name="Path 14419-5" class="cls-4" d="M971.61,45.65a4.47,4.47,0,0,0,5.42-1.6,4.75,4.75,0,0,0-1.2-6.6,4.58,4.58,0,0,0-6.28,1.32,4.79,4.79,0,0,0,1.54,6.6A5.21,5.21,0,0,0,971.61,45.65Z"/><path id="Path_14429-5" data-name="Path 14429-5" class="cls-4" d="M949.22,72.06a4.5,4.5,0,0,0,5.42-1.6,4.74,4.74,0,0,0-1.19-6.6,4.59,4.59,0,0,0-6.29,1.31,4.8,4.8,0,0,0,1.54,6.6A5.29,5.29,0,0,0,949.22,72.06Z"/><path id="Path_14405-6" data-name="Path 14405-6" class="cls-4" d="M880.51,13.47a4.57,4.57,0,0,0,5.17-.33,6.37,6.37,0,0,0,1.86-3,4.69,4.69,0,0,0-3.61-5.33A4.54,4.54,0,0,0,879,7.24a6.36,6.36,0,0,0-.49,3.8A5.6,5.6,0,0,0,880.51,13.47Z"/><g id="Group_10793-6" data-name="Group 10793-6"><path id="Path_14418-6" data-name="Path 14418-6" class="cls-3" d="M968.83,18.7a4.54,4.54,0,0,0,9.07-.5c0-3.26.11-6.54-.09-9.79a5.62,5.62,0,0,1-1.27,4.26,4.59,4.59,0,0,1-6.21.43,7.93,7.93,0,0,1-1.53-2C968.83,13.63,968.77,16.17,968.83,18.7Z"/><path id="Path_14420-6" data-name="Path 14420-6" class="cls-4" d="M970.33,13.1a4.59,4.59,0,0,0,6.21-.43,5.63,5.63,0,0,0,1.27-4.26,4.55,4.55,0,0,0-4.66-3.67,4.71,4.71,0,0,0-4.36,4.48c0,.62,0,1.24,0,1.87A7.93,7.93,0,0,0,970.33,13.1Z"/></g><g id="Group_10796-6" data-name="Group 10796-6"><path id="Path_14403-6" data-name="Path 14403-6" class="cls-5" d="M859.22,22.85a4.48,4.48,0,0,0,5.38-3.35,4.92,4.92,0,0,0,.11-.77c0-2.51,0-5,0-7.53a5.64,5.64,0,0,1-2,2.22,4.6,4.6,0,0,1-5.43-.76,6.63,6.63,0,0,1-1.41-2.59l0,.36v8.35A4.84,4.84,0,0,0,859.22,22.85Z"/><path id="Path_14406-6" data-name="Path 14406-6" class="cls-4" d="M857.22,12.65a4.59,4.59,0,0,0,5.42.76,5.56,5.56,0,0,0,2-2.21,5.22,5.22,0,0,0-.38-4.3,4.51,4.51,0,0,0-6.17-1.51,5.12,5.12,0,0,0-2.32,4.68A6.59,6.59,0,0,0,857.22,12.65Z"/></g><path id="Path_14407-6" data-name="Path 14407-6" class="cls-4" d="M903.83,13.69a4.66,4.66,0,0,0,4.24-8.23,4.49,4.49,0,0,0-4.89,0,4.85,4.85,0,0,0-2,5.1A4.6,4.6,0,0,0,903.83,13.69Z"/><path id="Path_14408-6" data-name="Path 14408-6" class="cls-4" d="M926.35,13.66A4.68,4.68,0,0,0,932.43,11a4.37,4.37,0,0,0,.26-.94,4.61,4.61,0,0,0-3.8-5.29,4.07,4.07,0,0,0-.49,0,4.74,4.74,0,0,0-4.8,4.68,5,5,0,0,0,.07.86A4.59,4.59,0,0,0,926.35,13.66Z"/><g id="Group_10791-6" data-name="Group 10791-6"><path id="Path_14425-6" data-name="Path 14425-6" class="cls-5" d="M991.49,19.59a4.43,4.43,0,0,0,8.68-.29c.14-2.75.08-5.51,0-8.26A4.83,4.83,0,0,1,998,13.5a4.6,4.6,0,0,1-5.52-1.12,4.87,4.87,0,0,1-.94-4.24c-.45,2.14-.17,4.34-.25,6.5A27.32,27.32,0,0,0,991.49,19.59Z"/><path id="Path_14427-6" data-name="Path 14427-6" class="cls-4" d="M992.47,12.38A4.6,4.6,0,0,0,998,13.5,4.83,4.83,0,0,0,1000.2,11a4.58,4.58,0,0,0-8.49-3.44q-.11.27-.18.54A4.87,4.87,0,0,0,992.47,12.38Z"/></g></g><g id="Group_10806" data-name="Group 10806"><path id="Path_14401-7" data-name="Path 14401-7" class="cls-3" d="M1078.85,23a4.56,4.56,0,0,0,4.25-.68,4.74,4.74,0,0,0,1.8-3.8c0-3,0-5.95,0-8.93a4.54,4.54,0,1,0-9.08.12v.12c0,3,0,6,0,9A4.54,4.54,0,0,0,1078.85,23Z"/><path id="Path_14411-7" data-name="Path 14411-7" class="cls-3" d="M1123.88,22.93a4.55,4.55,0,0,0,4.45-.68,4.69,4.69,0,0,0,1.73-3.76c0-3,0-5.95,0-8.92a4.54,4.54,0,1,0-9.08.06v.18c0,3,0,6,0,9A4.56,4.56,0,0,0,1123.88,22.93Z"/><path id="Path_14412-7" data-name="Path 14412-7" class="cls-3" d="M1123.88,67.13a4.55,4.55,0,0,0,4.46-.68,4.71,4.71,0,0,0,1.72-3.74c0-3,0-6,0-9a4.54,4.54,0,0,0-9.07,0q0,4.59,0,9.18A4.54,4.54,0,0,0,1123.88,67.13Z"/><path id="Path_14431-6" data-name="Path 14431-6" class="cls-3" d="M1191.61,21.65a4.55,4.55,0,0,0,4.46-.68,4.68,4.68,0,0,0,1.72-3.74c0-3,0-6,0-9a4.53,4.53,0,0,0-9.06,0q0,4.59,0,9.18A4.52,4.52,0,0,0,1191.61,21.65Z"/><path id="Path_14429-6" data-name="Path 14429-6" class="cls-4" d="M1124,40.39a4.5,4.5,0,0,0,5.42-1.6,4.76,4.76,0,0,0-1.2-6.6,4.58,4.58,0,0,0-6.28,1.31,4.79,4.79,0,0,0,1.53,6.6A5.45,5.45,0,0,0,1124,40.39Z"/><g id="Group_10796-7" data-name="Group 10796-7"><path id="Path_14403-7" data-name="Path 14403-7" class="cls-5" d="M1034,23.52a4.48,4.48,0,0,0,5.38-3.35,3.87,3.87,0,0,0,.11-.76c0-2.51,0-5,0-7.53a5.73,5.73,0,0,1-2,2.22,4.58,4.58,0,0,1-5.42-.77,6.59,6.59,0,0,1-1.41-2.58l-.06.36v8.35A4.86,4.86,0,0,0,1034,23.52Z"/><path id="Path_14406-7" data-name="Path 14406-7" class="cls-4" d="M1032,13.32a4.58,4.58,0,0,0,5.42.77,5.66,5.66,0,0,0,2-2.22,5.2,5.2,0,0,0-.38-4.29,4.52,4.52,0,0,0-6.18-1.52,5.15,5.15,0,0,0-2.32,4.68A6.54,6.54,0,0,0,1032,13.32Z"/></g><path id="Path_14407-7" data-name="Path 14407-7" class="cls-4" d="M1056.29,40.24a4.66,4.66,0,0,0,4.25-8.23,4.51,4.51,0,0,0-4.9,0,4.83,4.83,0,0,0-2,5.1A4.59,4.59,0,0,0,1056.29,40.24Z"/><path id="Path_14408-7" data-name="Path 14408-7" class="cls-4" d="M1101.09,14.33a4.67,4.67,0,0,0,6.08-2.62,5.16,5.16,0,0,0,.27-1,4.61,4.61,0,0,0-3.81-5.29l-.49,0a4.74,4.74,0,0,0-4.79,4.68,4.11,4.11,0,0,0,.07.86A4.6,4.6,0,0,0,1101.09,14.33Z"/><g id="Group_10791-7" data-name="Group 10791-7"><path id="Path_14425-7" data-name="Path 14425-7" class="cls-5" d="M1166.24,18.83a4.43,4.43,0,0,0,8.68-.29c.13-2.75.07-5.51,0-8.26a4.82,4.82,0,0,1-2.21,2.46,4.57,4.57,0,0,1-5.51-1.13,4.82,4.82,0,0,1-1-4.23c-.44,2.14-.16,4.33-.24,6.5A25.62,25.62,0,0,0,1166.24,18.83Z"/><path id="Path_14427-7" data-name="Path 14427-7" class="cls-4" d="M1167.22,11.61a4.57,4.57,0,0,0,5.51,1.13,4.82,4.82,0,0,0,2.21-2.46,4.58,4.58,0,0,0-8.48-3.44,2.63,2.63,0,0,0-.18.54A4.79,4.79,0,0,0,1167.22,11.61Z"/></g><g id="Group_10794-7" data-name="Group 10794-7"><path id="Path_14409-13" data-name="Path 14409-13" class="cls-3" d="M1056.22,23.57a4.57,4.57,0,0,0,5-.93,4.63,4.63,0,0,0,1.36-3.43c0-2.63,0-5.27,0-7.9a5.25,5.25,0,0,1-1.83,3,4.56,4.56,0,0,1-5.37,0,5.45,5.45,0,0,1-1.87-2.72c0,2.64,0,5.3,0,7.94A4.58,4.58,0,0,0,1056.22,23.57Z"/><path id="Path_14415-13" data-name="Path 14415-13" class="cls-4" d="M1055.4,14.3a4.58,4.58,0,0,0,5.37,0,5.25,5.25,0,0,0,1.83-3,5.93,5.93,0,0,0-.53-3.13,4.85,4.85,0,0,0-4-2.48A4.74,4.74,0,0,0,1054.19,8a6.29,6.29,0,0,0-.66,3.59A5.52,5.52,0,0,0,1055.4,14.3Z"/></g><g id="Group_10790-7" data-name="Group 10790-7"><path id="Path_14423-7" data-name="Path 14423-7" class="cls-3" d="M1168.39,49.21a4.58,4.58,0,0,0,5.15-.4,4.51,4.51,0,0,0,1.68-3.42c0-2.66,0-5.31,0-8a5.57,5.57,0,0,1-2.06,2.87,4.54,4.54,0,0,1-5.47-.39,5.06,5.06,0,0,1-1.54-2.68c0,2.71,0,5.41,0,8.11A4.63,4.63,0,0,0,1168.39,49.21Z"/><path id="Path_14428-7" data-name="Path 14428-7" class="cls-4" d="M1167.69,39.9a4.56,4.56,0,0,0,5.48.39,5.61,5.61,0,0,0,2-2.87,6.59,6.59,0,0,0-.47-3.25,4.84,4.84,0,0,0-4.13-2.6,4.78,4.78,0,0,0-3.85,2.35,6,6,0,0,0-.62,3.3A5.12,5.12,0,0,0,1167.69,39.9Z"/></g></g><g id="Group_10807" data-name="Group 10807"><path id="Path_14401-8" data-name="Path 14401-8" class="cls-3" d="M1253.6,86.23a4.54,4.54,0,0,0,4.24-.67,4.71,4.71,0,0,0,1.8-3.8c0-3,0-6,0-8.93a4.55,4.55,0,0,0-9.09.12.49.49,0,0,1,0,.12c0,3,0,6,0,9A4.51,4.51,0,0,0,1253.6,86.23Z"/><path id="Path_14411-8" data-name="Path 14411-8" class="cls-3" d="M1298.63,86.19a4.53,4.53,0,0,0,4.44-.68,4.69,4.69,0,0,0,1.73-3.76c0-3,0-6,0-8.92a4.54,4.54,0,1,0-9.08.06c0,.06,0,.12,0,.18,0,3,0,6,0,9A4.53,4.53,0,0,0,1298.63,86.19Z"/><path id="Path_14402-8" data-name="Path 14402-8" class="cls-3" d="M1228,50.3a4.53,4.53,0,0,0,9-.28c0-2.75,0-5.51,0-8.26a6.37,6.37,0,0,1-1.86,3,4.57,4.57,0,0,1-5.17.33,5.54,5.54,0,0,1-2-2.43C1228,45.18,1228,47.74,1228,50.3Z"/><path id="Path_14412-8" data-name="Path 14412-8" class="cls-3" d="M1298.62,54.2a4.56,4.56,0,0,0,4.47-.68,4.69,4.69,0,0,0,1.71-3.74c0-3,0-6,0-9a4.53,4.53,0,0,0-9.06,0q0,4.59,0,9.18A4.52,4.52,0,0,0,1298.62,54.2Z"/><path id="Path_14431-7" data-name="Path 14431-7" class="cls-3" d="M1366.36,86.35a4.55,4.55,0,0,0,4.46-.68,4.72,4.72,0,0,0,1.72-3.75c0-3,0-6,0-8.94a4.54,4.54,0,0,0-9.07,0q0,4.59,0,9.17A4.55,4.55,0,0,0,1366.36,86.35Z"/><path id="Path_14400-7" data-name="Path 14400-7" class="cls-4" d="M1208.32,77.29a4.45,4.45,0,0,0,5.25-1.61,4.75,4.75,0,0,0-.93-6.47,4.58,4.58,0,0,0-6.4,1c0,.07-.09.14-.14.21a4.78,4.78,0,0,0,1.59,6.56A4.65,4.65,0,0,0,1208.32,77.29Z"/><path id="Path_14419-6" data-name="Path 14419-6" class="cls-4" d="M1321.1,77.24a4.47,4.47,0,0,0,5.42-1.6,4.76,4.76,0,0,0-1.19-6.6,4.59,4.59,0,0,0-6.29,1.32,4.79,4.79,0,0,0,1.54,6.6A5.21,5.21,0,0,0,1321.1,77.24Z"/><path id="Path_14430-8" data-name="Path 14430-8" class="cls-4" d="M1366.45,13.53a4.49,4.49,0,0,0,5.41-1.6,4.74,4.74,0,0,0-1.19-6.6,4.58,4.58,0,0,0-6.28,1.31,4.79,4.79,0,0,0,1.53,6.6A5.45,5.45,0,0,0,1366.45,13.53Z"/><path id="Path_14429-7" data-name="Path 14429-7" class="cls-4" d="M1298.72,13.65a4.49,4.49,0,0,0,5.41-1.6,4.74,4.74,0,0,0-1.19-6.6,4.58,4.58,0,0,0-6.28,1.31,4.79,4.79,0,0,0,1.53,6.6A4.49,4.49,0,0,0,1298.72,13.65Z"/><path id="Path_14405-8" data-name="Path 14405-8" class="cls-4" d="M1230,45.06a4.57,4.57,0,0,0,5.17-.33,6.37,6.37,0,0,0,1.86-3,4.7,4.7,0,0,0-3.61-5.34,4.55,4.55,0,0,0-4.93,2.4,6.31,6.31,0,0,0-.5,3.8A5.57,5.57,0,0,0,1230,45.06Z"/><g id="Group_10793-8" data-name="Group 10793-8"><path id="Path_14418-8" data-name="Path 14418-8" class="cls-3" d="M1318.32,50.29a4.54,4.54,0,0,0,9.07-.5c-.05-3.27.11-6.54-.09-9.79a5.62,5.62,0,0,1-1.27,4.26,4.59,4.59,0,0,1-6.21.43,7.93,7.93,0,0,1-1.53-2C1318.32,45.21,1318.26,47.75,1318.32,50.29Z"/><path id="Path_14420-8" data-name="Path 14420-8" class="cls-4" d="M1319.82,44.69a4.59,4.59,0,0,0,6.21-.43A5.63,5.63,0,0,0,1327.3,40a4.55,4.55,0,0,0-4.66-3.67,4.71,4.71,0,0,0-4.36,4.48c0,.62,0,1.24,0,1.87A7.93,7.93,0,0,0,1319.82,44.69Z"/></g><g id="Group_10796-8" data-name="Group 10796-8"><path id="Path_14403-8" data-name="Path 14403-8" class="cls-5" d="M1208.71,54.44a4.48,4.48,0,0,0,5.38-3.35,4.92,4.92,0,0,0,.11-.77c0-2.51,0-5,0-7.53a5.64,5.64,0,0,1-2,2.22,4.6,4.6,0,0,1-5.43-.76,6.63,6.63,0,0,1-1.41-2.59l0,.36v8.35A4.84,4.84,0,0,0,1208.71,54.44Z"/><path id="Path_14406-8" data-name="Path 14406-8" class="cls-4" d="M1206.71,44.24a4.6,4.6,0,0,0,5.43.76,5.64,5.64,0,0,0,2-2.22,5.2,5.2,0,0,0-.38-4.29,4.51,4.51,0,0,0-6.17-1.51,5.12,5.12,0,0,0-2.32,4.68A6.59,6.59,0,0,0,1206.71,44.24Z"/></g><path id="Path_14407-8" data-name="Path 14407-8" class="cls-4" d="M1253.32,45.28a4.66,4.66,0,0,0,4.24-8.23,4.49,4.49,0,0,0-4.89,0,4.85,4.85,0,0,0-2,5.1A4.6,4.6,0,0,0,1253.32,45.28Z"/><path id="Path_14408-8" data-name="Path 14408-8" class="cls-4" d="M1275.84,45.25a4.68,4.68,0,0,0,6.08-2.63,4.37,4.37,0,0,0,.26-.94,4.61,4.61,0,0,0-3.8-5.29,4.07,4.07,0,0,0-.49,0,4.73,4.73,0,0,0-4.8,4.68,5,5,0,0,0,.07.86A4.61,4.61,0,0,0,1275.84,45.25Z"/><g id="Group_10791-8" data-name="Group 10791-8"><path id="Path_14425-8" data-name="Path 14425-8" class="cls-5" d="M1341,51.18a4.43,4.43,0,0,0,8.68-.29c.14-2.75.08-5.51,0-8.26a4.83,4.83,0,0,1-2.21,2.46A4.6,4.6,0,0,1,1342,44a4.87,4.87,0,0,1-.94-4.24c-.45,2.14-.17,4.34-.24,6.5A26.44,26.44,0,0,0,1341,51.18Z"/><path id="Path_14427-8" data-name="Path 14427-8" class="cls-4" d="M1342,44a4.58,4.58,0,0,0,5.52,1.13,4.83,4.83,0,0,0,2.21-2.46,4.58,4.58,0,0,0-8.49-3.44q-.1.27-.18.54A4.85,4.85,0,0,0,1342,44Z"/></g><path id="Path_14414-8" data-name="Path 14414-8" class="cls-4" d="M1208.92,13.51a4.59,4.59,0,0,0,5.43-3.54,4.79,4.79,0,0,0,.09-.84A4.65,4.65,0,0,0,1210,4.29h-.38a4.7,4.7,0,0,0-.69,9.22Z"/><g id="Group_10794-8" data-name="Group 10794-8"><path id="Path_14409-15" data-name="Path 14409-15" class="cls-3" d="M1253.24,22.14a4.57,4.57,0,0,0,6.4-4.36c0-2.63,0-5.27,0-7.9a5.27,5.27,0,0,1-1.84,3,4.56,4.56,0,0,1-5.36,0,5.54,5.54,0,0,1-1.88-2.73c0,2.64,0,5.3,0,7.94A4.62,4.62,0,0,0,1253.24,22.14Z"/><path id="Path_14415-15" data-name="Path 14415-15" class="cls-4" d="M1252.43,12.87a4.56,4.56,0,0,0,5.36,0,5.27,5.27,0,0,0,1.84-3,6,6,0,0,0-.53-3.13,4.88,4.88,0,0,0-4-2.48,4.77,4.77,0,0,0-3.92,2.28,6.46,6.46,0,0,0-.66,3.59A5.54,5.54,0,0,0,1252.43,12.87Z"/></g><path id="Path_14416-8" data-name="Path 14416-8" class="cls-4" d="M1276.67,13.51a4.6,4.6,0,0,0,5.44-3.57,5.1,5.1,0,0,0,.09-1.11,4.53,4.53,0,0,0-4.6-4.48,4.19,4.19,0,0,0-1.32.21,4.68,4.68,0,0,0,.39,9Z"/><g id="Group_10790-8" data-name="Group 10790-8"><path id="Path_14423-8" data-name="Path 14423-8" class="cls-3" d="M1343.14,21.91a4.57,4.57,0,0,0,5.14-.4,4.49,4.49,0,0,0,1.68-3.43c0-2.65,0-5.31,0-8a5.54,5.54,0,0,1-2,2.87,4.56,4.56,0,0,1-5.48-.39,5.19,5.19,0,0,1-1.54-2.68c0,2.7,0,5.41,0,8.11A4.63,4.63,0,0,0,1343.14,21.91Z"/><path id="Path_14428-8" data-name="Path 14428-8" class="cls-4" d="M1342.44,12.6a4.54,4.54,0,0,0,5.47.39,5.54,5.54,0,0,0,2-2.87,6.68,6.68,0,0,0-.46-3.25,4.85,4.85,0,0,0-4.13-2.6,4.77,4.77,0,0,0-3.85,2.35,5.88,5.88,0,0,0-.62,3.3A5.06,5.06,0,0,0,1342.44,12.6Z"/></g><g id="Group_10795-8" data-name="Group 10795-8"><path id="Path_14410-8" data-name="Path 14410-8" class="cls-5" d="M1228.68,20.37a4.48,4.48,0,0,0,5.28,2,4.69,4.69,0,0,0,3-4.56c0-2.55,0-5.1,0-7.64a4.56,4.56,0,0,1-8.91-.28c0,2.55,0,5.1,0,7.65A5.28,5.28,0,0,0,1228.68,20.37Z"/><path id="Path_14417-8" data-name="Path 14417-8" class="cls-4" d="M1228,9.86a4.57,4.57,0,0,0,8.92.28,5.61,5.61,0,0,0-.31-3.14,4.82,4.82,0,0,0-4.28-2.73,4.74,4.74,0,0,0-4.4,5A5,5,0,0,0,1228,9.86Z"/></g><g id="Group_10798-8" data-name="Group 10798-8" class="cls-6"><path id="Path_14422-8" data-name="Path 14422-8" class="cls-5" d="M1318.37,18.33a4.55,4.55,0,0,0,4.82,4.24,4.5,4.5,0,0,0,3.71-2.67c.6-1.26.39-2.68.42-4,0-1.82,0-3.63,0-5.44a4.9,4.9,0,0,1-4.39,3.15,4.66,4.66,0,0,1-4.5-3.53C1318.34,12.82,1318.35,15.58,1318.37,18.33Z"/><path id="Path_14421-8" data-name="Path 14421-8" class="cls-4" d="M1318.39,10.06a4.64,4.64,0,0,0,4.49,3.53,4.88,4.88,0,0,0,4.39-3.15,6,6,0,0,0-.42-3.69,4.88,4.88,0,0,0-4-2.48,4.74,4.74,0,0,0-4,2.46A5.4,5.4,0,0,0,1318.39,10.06Z"/></g></g></g><g id="Group_10811" data-name="Group 10811"><g id="Group_10789-2" data-name="Group 10789-2"><path id="Path_14401-9" data-name="Path 14401-9" class="cls-3" d="M1429.38,54.65a4.57,4.57,0,0,0,4.25-.68,4.74,4.74,0,0,0,1.8-3.8c0-3,0-6,0-8.93a4.54,4.54,0,1,0-9.08.12v.12c0,3,0,6,0,9A4.54,4.54,0,0,0,1429.38,54.65Z"/><path id="Path_14411-9" data-name="Path 14411-9" class="cls-3" d="M1474.41,54.6a4.55,4.55,0,0,0,4.45-.68,4.68,4.68,0,0,0,1.72-3.76c0-3,0-5.95,0-8.92a4.54,4.54,0,1,0-9.08.06v.18c0,3,0,6,0,9A4.56,4.56,0,0,0,1474.41,54.6Z"/><path id="Path_14402-9" data-name="Path 14402-9" class="cls-3" d="M1403.77,18.71a4.54,4.54,0,0,0,9.06-.28c0-2.75,0-5.51,0-8.26a6.45,6.45,0,0,1-1.86,3,4.57,4.57,0,0,1-5.17.33,5.48,5.48,0,0,1-2-2.43Q1403.72,14.87,1403.77,18.71Z"/><path id="Path_14412-9" data-name="Path 14412-9" class="cls-3" d="M1474.41,22.61a4.54,4.54,0,0,0,4.46-.67,4.68,4.68,0,0,0,1.71-3.75c0-3,0-6,0-9a4.54,4.54,0,0,0-9.07,0q0,4.59,0,9.18A4.53,4.53,0,0,0,1474.41,22.61Z"/><path id="Path_14431-8" data-name="Path 14431-8" class="cls-3" d="M1542.14,54.76a4.55,4.55,0,0,0,4.46-.68,4.72,4.72,0,0,0,1.72-3.75c0-3,0-6,0-8.94a4.54,4.54,0,0,0-9.07,0q0,4.59,0,9.18A4.54,4.54,0,0,0,1542.14,54.76Z"/><path id="Path_14400-8" data-name="Path 14400-8" class="cls-4" d="M1384.1,45.7a4.46,4.46,0,0,0,5.26-1.61,4.77,4.77,0,0,0-.93-6.47,4.58,4.58,0,0,0-6.4,1l-.14.21a4.76,4.76,0,0,0,1.58,6.56A4.65,4.65,0,0,0,1384.1,45.7Z"/><path id="Path_14419-7" data-name="Path 14419-7" class="cls-4" d="M1496.89,45.65a4.46,4.46,0,0,0,5.41-1.6,4.75,4.75,0,0,0-1.19-6.6,4.58,4.58,0,0,0-6.28,1.32,4.79,4.79,0,0,0,1.53,6.6A4.44,4.44,0,0,0,1496.89,45.65Z"/><path id="Path_14429-8" data-name="Path 14429-8" class="cls-4" d="M1474.5,72.06a4.49,4.49,0,0,0,5.41-1.6,4.74,4.74,0,0,0-1.19-6.6,4.58,4.58,0,0,0-6.28,1.31,4.79,4.79,0,0,0,1.53,6.6A5.45,5.45,0,0,0,1474.5,72.06Z"/><path id="Path_14405-9" data-name="Path 14405-9" class="cls-4" d="M1405.79,13.47a4.57,4.57,0,0,0,5.17-.33,6.45,6.45,0,0,0,1.86-3,4.7,4.7,0,0,0-3.62-5.33,4.52,4.52,0,0,0-4.93,2.4,6.36,6.36,0,0,0-.49,3.8A5.53,5.53,0,0,0,1405.79,13.47Z"/><g id="Group_10793-9" data-name="Group 10793-9"><path id="Path_14418-9" data-name="Path 14418-9" class="cls-3" d="M1494.1,18.7a4.54,4.54,0,0,0,9.07-.5c-.05-3.26.11-6.54-.08-9.79a5.59,5.59,0,0,1-1.28,4.26,4.59,4.59,0,0,1-6.21.43,7.67,7.67,0,0,1-1.52-2C1494.11,13.63,1494.05,16.17,1494.1,18.7Z"/><path id="Path_14420-9" data-name="Path 14420-9" class="cls-4" d="M1495.6,13.1a4.59,4.59,0,0,0,6.21-.43,5.6,5.6,0,0,0,1.28-4.26,4.56,4.56,0,0,0-4.67-3.67,4.71,4.71,0,0,0-4.36,4.48c0,.62,0,1.24,0,1.87A7.67,7.67,0,0,0,1495.6,13.1Z"/></g><g id="Group_10796-9" data-name="Group 10796-9"><path id="Path_14403-9" data-name="Path 14403-9" class="cls-5" d="M1384.49,22.85a4.48,4.48,0,0,0,5.38-3.35,4,4,0,0,0,.11-.77c0-2.51,0-5,0-7.53a5.66,5.66,0,0,1-2,2.22,4.59,4.59,0,0,1-5.42-.76,6.5,6.5,0,0,1-1.41-2.59l-.06.36v8.35A4.86,4.86,0,0,0,1384.49,22.85Z"/><path id="Path_14406-9" data-name="Path 14406-9" class="cls-4" d="M1382.49,12.65a4.6,4.6,0,0,0,5.43.76,5.64,5.64,0,0,0,2-2.21,5.19,5.19,0,0,0-.39-4.3,4.51,4.51,0,0,0-6.17-1.51,5.12,5.12,0,0,0-2.32,4.68A6.59,6.59,0,0,0,1382.49,12.65Z"/></g><path id="Path_14407-9" data-name="Path 14407-9" class="cls-4" d="M1429.1,13.69a4.66,4.66,0,0,0,4.25-8.23,4.51,4.51,0,0,0-4.9,0,4.85,4.85,0,0,0-2,5.1A4.62,4.62,0,0,0,1429.1,13.69Z"/><path id="Path_14408-9" data-name="Path 14408-9" class="cls-4" d="M1451.62,13.66A4.68,4.68,0,0,0,1457.7,11a4.37,4.37,0,0,0,.26-.94,4.61,4.61,0,0,0-3.8-5.29,3.87,3.87,0,0,0-.49,0,4.73,4.73,0,0,0-4.79,4.68,5,5,0,0,0,.06.86A4.61,4.61,0,0,0,1451.62,13.66Z"/><g id="Group_10791-9" data-name="Group 10791-9"><path id="Path_14425-9" data-name="Path 14425-9" class="cls-5" d="M1516.76,19.59a4.44,4.44,0,0,0,8.69-.29c.13-2.75.07-5.51,0-8.26a4.79,4.79,0,0,1-2.21,2.46,4.6,4.6,0,0,1-5.52-1.12,4.87,4.87,0,0,1-.94-4.24c-.44,2.14-.17,4.34-.24,6.5A26.44,26.44,0,0,0,1516.76,19.59Z"/><path id="Path_14427-9" data-name="Path 14427-9" class="cls-4" d="M1517.75,12.38a4.58,4.58,0,0,0,5.51,1.12,4.79,4.79,0,0,0,2.21-2.46A4.58,4.58,0,0,0,1517,7.6q-.11.27-.18.54A4.85,4.85,0,0,0,1517.75,12.38Z"/></g></g><g id="Group_10801-2" data-name="Group 10801-2"><path id="Path_14401-10" data-name="Path 14401-10" class="cls-3" d="M1604.13,55.15a4.54,4.54,0,0,0,4.24-.67,4.73,4.73,0,0,0,1.8-3.8c0-3,0-6,0-8.94a4.54,4.54,0,1,0-9.08.12.49.49,0,0,0,0,.12c0,3,0,6,0,9A4.54,4.54,0,0,0,1604.13,55.15Z"/><path id="Path_14412-10" data-name="Path 14412-10" class="cls-3" d="M1649.15,23.12a4.55,4.55,0,0,0,4.46-.68,4.72,4.72,0,0,0,1.72-3.75c0-3,0-6,0-8.94a4.54,4.54,0,0,0-9.07,0q0,4.59,0,9.18A4.54,4.54,0,0,0,1649.15,23.12Z"/><path id="Path_14400-9" data-name="Path 14400-9" class="cls-4" d="M1558.85,46.21a4.45,4.45,0,0,0,5.25-1.61,4.76,4.76,0,0,0-.93-6.48,4.58,4.58,0,0,0-6.4,1c0,.07-.09.14-.14.2a4.8,4.8,0,0,0,1.58,6.57A5.46,5.46,0,0,0,1558.85,46.21Z"/><g id="Group_10793-10" data-name="Group 10793-10"><path id="Path_14418-10" data-name="Path 14418-10" class="cls-3" d="M1668.85,19.21a4.54,4.54,0,0,0,9.07-.5c-.05-3.27.1-6.54-.09-9.79a5.6,5.6,0,0,1-1.28,4.26,4.57,4.57,0,0,1-6.2.43,8,8,0,0,1-1.53-2C1668.85,14.13,1668.79,16.67,1668.85,19.21Z"/><path id="Path_14420-10" data-name="Path 14420-10" class="cls-4" d="M1670.35,13.61a4.58,4.58,0,0,0,6.21-.44,5.61,5.61,0,0,0,1.27-4.26,4.55,4.55,0,0,0-4.67-3.66,4.73,4.73,0,0,0-4.36,4.48c0,.62,0,1.24,0,1.86A7.92,7.92,0,0,0,1670.35,13.61Z"/></g><g id="Group_10796-10" data-name="Group 10796-10"><path id="Path_14403-10" data-name="Path 14403-10" class="cls-5" d="M1559.24,23.36a4.48,4.48,0,0,0,5.38-3.36,4.8,4.8,0,0,0,.11-.76c0-2.51,0-5,0-7.53a5.59,5.59,0,0,1-2,2.22,4.58,4.58,0,0,1-5.42-.77,6.52,6.52,0,0,1-1.41-2.58l0,.36v8.35A4.85,4.85,0,0,0,1559.24,23.36Z"/><path id="Path_14406-10" data-name="Path 14406-10" class="cls-4" d="M1557.24,13.15a4.58,4.58,0,0,0,5.42.77,5.59,5.59,0,0,0,2-2.22,5.2,5.2,0,0,0-.38-4.29,4.5,4.5,0,0,0-6.17-1.51,5.11,5.11,0,0,0-2.32,4.67A6.52,6.52,0,0,0,1557.24,13.15Z"/></g><path id="Path_14407-10" data-name="Path 14407-10" class="cls-4" d="M1603.85,14.19A4.65,4.65,0,0,0,1608.09,6a4.49,4.49,0,0,0-4.89,0,4.83,4.83,0,0,0-2,5.1A4.56,4.56,0,0,0,1603.85,14.19Z"/><path id="Path_14408-10" data-name="Path 14408-10" class="cls-4" d="M1626.37,14.17a4.7,4.7,0,0,0,6.08-2.63,5.13,5.13,0,0,0,.26-.95,4.6,4.6,0,0,0-3.8-5.28l-.49-.06a4.75,4.75,0,0,0-4.8,4.69,4.88,4.88,0,0,0,.07.85A4.62,4.62,0,0,0,1626.37,14.17Z"/><g id="Group_10791-10" data-name="Group 10791-10"><path id="Path_14425-10" data-name="Path 14425-10" class="cls-5" d="M1691.51,20.1a4.43,4.43,0,0,0,8.68-.29c.14-2.75.08-5.51,0-8.26A4.85,4.85,0,0,1,1698,14a4.58,4.58,0,0,1-5.52-1.13,4.79,4.79,0,0,1-.94-4.23c-.45,2.14-.17,4.33-.25,6.5A26.44,26.44,0,0,0,1691.51,20.1Z"/><path id="Path_14427-10" data-name="Path 14427-10" class="cls-4" d="M1692.49,12.88A4.58,4.58,0,0,0,1698,14a4.91,4.91,0,0,0,2.21-2.46,4.58,4.58,0,0,0-8.49-3.44,4.69,4.69,0,0,0,.76,4.77Z"/></g></g><g id="Group_10802-2" data-name="Group 10802-2"><path id="Path_14401-11" data-name="Path 14401-11" class="cls-3" d="M1778.87,56.39a4.57,4.57,0,0,0,4.25-.68,4.74,4.74,0,0,0,1.8-3.8c0-3,0-5.95,0-8.93a4.54,4.54,0,1,0-9.08.12v.12c0,3,0,6,0,9A4.54,4.54,0,0,0,1778.87,56.39Z"/><path id="Path_14411-10" data-name="Path 14411-10" class="cls-3" d="M1823.9,56.34a4.55,4.55,0,0,0,4.45-.68,4.72,4.72,0,0,0,1.73-3.76c0-3,0-5.95,0-8.92A4.54,4.54,0,1,0,1821,43v.18c0,3,0,6,0,9A4.56,4.56,0,0,0,1823.9,56.34Z"/><path id="Path_14402-10" data-name="Path 14402-10" class="cls-3" d="M1753.26,20.45a4.54,4.54,0,0,0,9.06-.28c0-2.75,0-5.51,0-8.26a6.45,6.45,0,0,1-1.86,3,4.57,4.57,0,0,1-5.17.33,5.54,5.54,0,0,1-2-2.43Q1753.21,16.61,1753.26,20.45Z"/><path id="Path_14412-11" data-name="Path 14412-11" class="cls-3" d="M1823.9,24.35a4.54,4.54,0,0,0,4.46-.67,4.72,4.72,0,0,0,1.72-3.75c0-3,0-6,0-8.95a4.54,4.54,0,0,0-9.07,0q0,4.59,0,9.18A4.53,4.53,0,0,0,1823.9,24.35Z"/><path id="Path_14431-9" data-name="Path 14431-9" class="cls-3" d="M1891.63,56.5a4.55,4.55,0,0,0,4.46-.68,4.72,4.72,0,0,0,1.72-3.75c0-3,0-6,0-8.94a4.54,4.54,0,0,0-9.07,0q0,4.59,0,9.18A4.54,4.54,0,0,0,1891.63,56.5Z"/><path id="Path_14400-10" data-name="Path 14400-10" class="cls-4" d="M1733.59,47.44a4.46,4.46,0,0,0,5.26-1.61,4.77,4.77,0,0,0-.93-6.47,4.58,4.58,0,0,0-6.4,1l-.14.21a4.76,4.76,0,0,0,1.58,6.56A4.65,4.65,0,0,0,1733.59,47.44Z"/><path id="Path_14419-8" data-name="Path 14419-8" class="cls-4" d="M1846.38,47.39a4.46,4.46,0,0,0,5.41-1.6,4.75,4.75,0,0,0-1.19-6.6,4.58,4.58,0,0,0-6.28,1.32,4.79,4.79,0,0,0,1.53,6.6A5.36,5.36,0,0,0,1846.38,47.39Z"/><path id="Path_14429-9" data-name="Path 14429-9" class="cls-4" d="M1824,73.8a4.48,4.48,0,0,0,5.41-1.6,4.74,4.74,0,0,0-1.19-6.6,4.58,4.58,0,0,0-6.28,1.31,4.79,4.79,0,0,0,1.53,6.6A5.45,5.45,0,0,0,1824,73.8Z"/><path id="Path_14405-10" data-name="Path 14405-10" class="cls-4" d="M1755.28,15.21a4.57,4.57,0,0,0,5.17-.33,6.45,6.45,0,0,0,1.86-3,4.7,4.7,0,0,0-3.62-5.33,4.53,4.53,0,0,0-4.93,2.4,6.36,6.36,0,0,0-.49,3.8A5.53,5.53,0,0,0,1755.28,15.21Z"/><g id="Group_10793-11" data-name="Group 10793-11"><path id="Path_14418-11" data-name="Path 14418-11" class="cls-3" d="M1843.6,20.44a4.54,4.54,0,0,0,9.06-.5c-.05-3.26.11-6.54-.08-9.79a5.59,5.59,0,0,1-1.28,4.26,4.59,4.59,0,0,1-6.21.43,7.89,7.89,0,0,1-1.52-2C1843.6,15.37,1843.54,17.91,1843.6,20.44Z"/><path id="Path_14420-11" data-name="Path 14420-11" class="cls-4" d="M1845.09,14.84a4.59,4.59,0,0,0,6.21-.43,5.6,5.6,0,0,0,1.28-4.26,4.56,4.56,0,0,0-4.67-3.67,4.71,4.71,0,0,0-4.36,4.48c0,.62,0,1.24,0,1.87A7.89,7.89,0,0,0,1845.09,14.84Z"/></g><g id="Group_10796-11" data-name="Group 10796-11"><path id="Path_14403-11" data-name="Path 14403-11" class="cls-5" d="M1734,24.59a4.48,4.48,0,0,0,5.38-3.35,4,4,0,0,0,.11-.77c0-2.51,0-5,0-7.53a5.66,5.66,0,0,1-2,2.22,4.59,4.59,0,0,1-5.42-.76,6.5,6.5,0,0,1-1.41-2.59l-.06.36v8.35A4.86,4.86,0,0,0,1734,24.59Z"/><path id="Path_14406-11" data-name="Path 14406-11" class="cls-4" d="M1732,14.39a4.59,4.59,0,0,0,5.42.76,5.64,5.64,0,0,0,2-2.21,5.22,5.22,0,0,0-.38-4.3,4.52,4.52,0,0,0-6.18-1.51,5.12,5.12,0,0,0-2.32,4.68A6.48,6.48,0,0,0,1732,14.39Z"/></g><path id="Path_14407-11" data-name="Path 14407-11" class="cls-4" d="M1778.59,15.43a4.66,4.66,0,0,0,4.25-8.23,4.51,4.51,0,0,0-4.9,0,4.83,4.83,0,0,0-2,5.1A4.59,4.59,0,0,0,1778.59,15.43Z"/><path id="Path_14408-11" data-name="Path 14408-11" class="cls-4" d="M1801.11,15.4a4.68,4.68,0,0,0,6.08-2.63,4.37,4.37,0,0,0,.26-.94,4.6,4.6,0,0,0-3.8-5.29,3.87,3.87,0,0,0-.49,0,4.73,4.73,0,0,0-4.79,4.68,5,5,0,0,0,.06.86A4.61,4.61,0,0,0,1801.11,15.4Z"/><g id="Group_10791-11" data-name="Group 10791-11"><path id="Path_14425-11" data-name="Path 14425-11" class="cls-5" d="M1866.25,21.33a4.44,4.44,0,0,0,8.69-.29c.13-2.75.07-5.51,0-8.26a4.79,4.79,0,0,1-2.21,2.46,4.58,4.58,0,0,1-5.51-1.12,4.85,4.85,0,0,1-1-4.24c-.44,2.14-.17,4.34-.24,6.5A26.44,26.44,0,0,0,1866.25,21.33Z"/><path id="Path_14427-11" data-name="Path 14427-11" class="cls-4" d="M1867.24,14.12a4.58,4.58,0,0,0,5.51,1.12,4.74,4.74,0,0,0,2.21-2.46,4.58,4.58,0,0,0-8.49-3.44q-.1.27-.18.54A4.85,4.85,0,0,0,1867.24,14.12Z"/></g></g></g></g></svg>