<svg id="Layer_1" data-name="Layer 1" xmlns="http://www.w3.org/2000/svg" viewBox="0 0 1909 89"><defs><style>.cls-1{fill:#213368;}.cls-2{fill:#4db757;}.cls-3{fill:#00abec;}.cls-4{fill:#172547;}.cls-5{fill:#25bcbd;}.cls-6{fill:#fcb813;}.cls-7{fill:#f05b55;}.cls-8{fill:#4ac7e8;}</style></defs><path class="cls-1" d="M319.55,7.3a4.37,4.37,0,0,0-5.2-4.3,4.48,4.48,0,0,0-3.5,4.3v8.6a4.3,4.3,0,0,0,3.5,4.3,4.37,4.37,0,0,0,5.2-4.3Z"/><path class="cls-1" d="M580.3,7.3A4.37,4.37,0,0,0,575.1,3a4.48,4.48,0,0,0-3.5,4.3v8.6a4.3,4.3,0,0,0,3.5,4.3,4.37,4.37,0,0,0,5.2-4.3Z"/><path class="cls-1" d="M602,15.9a4.37,4.37,0,0,0-5.2-4.3,4.48,4.48,0,0,0-3.5,4.3h0a4.3,4.3,0,0,0,3.5,4.3,4.37,4.37,0,0,0,5.2-4.3Z"/><path class="cls-1" d="M536.9,7.3A4.37,4.37,0,0,0,531.7,3a4.48,4.48,0,0,0-3.5,4.3v8.6a4.3,4.3,0,0,0,3.5,4.3,4.37,4.37,0,0,0,5.2-4.3Z"/><path class="cls-2" d="M363.1,7.3A4.37,4.37,0,0,0,357.9,3a4.48,4.48,0,0,0-3.5,4.3v8.6a4.3,4.3,0,0,0,3.5,4.3,4.37,4.37,0,0,0,5.2-4.3Z"/><path class="cls-1" d="M450,7.3A4.37,4.37,0,0,0,444.8,3a4.48,4.48,0,0,0-3.5,4.3v8.6a4.3,4.3,0,0,0,3.5,4.3,4.37,4.37,0,0,0,5.2-4.3Z"/><path class="cls-1" d="M428.3,7.3A4.37,4.37,0,0,0,423.1,3a4.48,4.48,0,0,0-3.5,4.3v8.6a4.3,4.3,0,0,0,3.5,4.3,4.37,4.37,0,0,0,5.2-4.3Z"/><path class="cls-1" d="M406.5,7.3A4.37,4.37,0,0,0,401.3,3a4.48,4.48,0,0,0-3.5,4.3v8.6a4.3,4.3,0,0,0,3.5,4.3,4.37,4.37,0,0,0,5.2-4.3Z"/><path class="cls-1" d="M558.6,15.9a4.37,4.37,0,0,0-5.2-4.3,4.48,4.48,0,0,0-3.5,4.3h0a4.3,4.3,0,0,0,3.5,4.3,4.37,4.37,0,0,0,5.2-4.3Z"/><path class="cls-1" d="M515.1,15.9a4.37,4.37,0,0,0-5.2-4.3,4.48,4.48,0,0,0-3.5,4.3h0a4.3,4.3,0,0,0,3.5,4.3,4.37,4.37,0,0,0,5.2-4.3Z"/><path class="cls-2" d="M493.4,15.9a4.37,4.37,0,0,0-5.2-4.3,4.48,4.48,0,0,0-3.5,4.3h0a4.3,4.3,0,0,0,3.5,4.3,4.37,4.37,0,0,0,5.2-4.3Z"/><path class="cls-3" d="M623.7,15.9a4.37,4.37,0,0,0-5.2-4.3,4.48,4.48,0,0,0-3.5,4.3h0a4.3,4.3,0,0,0,3.5,4.3,4.37,4.37,0,0,0,5.2-4.3Z"/><path class="cls-1" d="M341.4,15.9a4.37,4.37,0,0,0-5.2-4.3,4.48,4.48,0,0,0-3.5,4.3h0a4.3,4.3,0,0,0,3.5,4.3,4.37,4.37,0,0,0,5.2-4.3Z"/><path class="cls-1" d="M319.7,15.9a4.37,4.37,0,0,0-5.2-4.3,4.48,4.48,0,0,0-3.5,4.3h0a4.3,4.3,0,0,0,3.5,4.3,4.37,4.37,0,0,0,5.2-4.3Z"/><path class="cls-4" d="M471.7,15.9a4.37,4.37,0,0,0-5.2-4.3,4.48,4.48,0,0,0-3.5,4.3h0a4.3,4.3,0,0,0,3.5,4.3,4.37,4.37,0,0,0,5.2-4.3Z"/><path class="cls-4" d="M384.8,15.9a4.37,4.37,0,0,0-5.2-4.3,4.48,4.48,0,0,0-3.5,4.3h0a4.3,4.3,0,0,0,3.5,4.3,4.37,4.37,0,0,0,5.2-4.3Z"/><path class="cls-5" d="M354.4,68.8a4.37,4.37,0,0,1,5.2-4.3,4.48,4.48,0,0,1,3.5,4.3v8.6a4.3,4.3,0,0,1-3.5,4.3,4.37,4.37,0,0,1-5.2-4.3Z"/><path class="cls-6" d="M332.7,77.4a4.37,4.37,0,0,1,5.2-4.3,4.48,4.48,0,0,1,3.5,4.3h0a4.3,4.3,0,0,1-3.5,4.3,4.37,4.37,0,0,1-5.2-4.3Z"/><path class="cls-2" d="M397.8,68.8a4.37,4.37,0,0,1,5.2-4.3,4.48,4.48,0,0,1,3.5,4.3v8.6a4.3,4.3,0,0,1-3.5,4.3,4.37,4.37,0,0,1-5.2-4.3Z"/><path class="cls-7" d="M571.6,68.8a4.37,4.37,0,0,1,5.2-4.3,4.48,4.48,0,0,1,3.5,4.3v8.6a4.3,4.3,0,0,1-3.5,4.3,4.37,4.37,0,0,1-5.2-4.3Z"/><path class="cls-5" d="M310.9,68.8a4.37,4.37,0,0,1,5.2-4.3,4.48,4.48,0,0,1,3.5,4.3v8.6a4.3,4.3,0,0,1-3.5,4.3,4.37,4.37,0,0,1-5.2-4.3Z"/><path class="cls-1" d="M441.4,68.8a4.37,4.37,0,0,1,5.2-4.3,4.48,4.48,0,0,1,3.5,4.3v8.6a4.3,4.3,0,0,1-3.5,4.3,4.37,4.37,0,0,1-5.2-4.3Z"/><path class="cls-1" d="M484.7,68.8a4.37,4.37,0,0,1,5.2-4.3,4.48,4.48,0,0,1,3.5,4.3v8.6a4.3,4.3,0,0,1-3.5,4.3,4.37,4.37,0,0,1-5.2-4.3Z"/><path class="cls-1" d="M528.1,68.8a4.37,4.37,0,0,1,5.2-4.3,4.48,4.48,0,0,1,3.5,4.3v8.6a4.3,4.3,0,0,1-3.5,4.3,4.37,4.37,0,0,1-5.2-4.3Z"/><path class="cls-2" d="M376.1,77.4a4.37,4.37,0,0,1,5.2-4.3,4.48,4.48,0,0,1,3.5,4.3h0a4.3,4.3,0,0,1-3.5,4.3,4.37,4.37,0,0,1-5.2-4.3Z"/><path class="cls-6" d="M419.5,77.4a4.37,4.37,0,0,1,5.2-4.3,4.48,4.48,0,0,1,3.5,4.3h0a4.3,4.3,0,0,1-3.5,4.3,4.37,4.37,0,0,1-5.2-4.3Z"/><path class="cls-6" d="M593.3,77.4a4.37,4.37,0,0,1,5.2-4.3,4.48,4.48,0,0,1,3.5,4.3h0a4.3,4.3,0,0,1-3.5,4.3,4.37,4.37,0,0,1-5.2-4.3Z"/><path class="cls-1" d="M615,77.4a4.37,4.37,0,0,1,5.2-4.3,4.48,4.48,0,0,1,3.5,4.3h0a4.3,4.3,0,0,1-3.5,4.3,4.37,4.37,0,0,1-5.2-4.3Z"/><path class="cls-7" d="M463,77.4a4.37,4.37,0,0,1,5.2-4.3,4.48,4.48,0,0,1,3.5,4.3h0a4.3,4.3,0,0,1-3.5,4.3,4.37,4.37,0,0,1-5.2-4.3Z"/><path class="cls-3" d="M506.4,77.4a4.37,4.37,0,0,1,5.2-4.3,4.48,4.48,0,0,1,3.5,4.3h0a4.3,4.3,0,0,1-3.5,4.3,4.37,4.37,0,0,1-5.2-4.3Z"/><path class="cls-2" d="M549.8,77.4a4.37,4.37,0,0,1,5.2-4.3,4.48,4.48,0,0,1,3.5,4.3h0a4.3,4.3,0,0,1-3.5,4.3,4.37,4.37,0,0,1-5.2-4.3Z"/><path class="cls-3" d="M602,38a4.37,4.37,0,0,0-5.2-4.3,4.48,4.48,0,0,0-3.5,4.3v8.6a4.3,4.3,0,0,0,3.5,4.3,4.37,4.37,0,0,0,5.2-4.3Z"/><path class="cls-1" d="M580.3,46.6a4.37,4.37,0,0,0-5.2-4.3,4.48,4.48,0,0,0-3.5,4.3h0a4.3,4.3,0,0,0,3.5,4.3,4.37,4.37,0,0,0,5.2-4.3Z"/><path class="cls-2" d="M536.9,38a4.37,4.37,0,0,0-5.2-4.3,4.48,4.48,0,0,0-3.5,4.3v8.6a4.3,4.3,0,0,0,3.5,4.3,4.37,4.37,0,0,0,5.2-4.3Z"/><path class="cls-4" d="M471.7,38a4.37,4.37,0,0,0-5.2-4.3A4.48,4.48,0,0,0,463,38v8.6a4.3,4.3,0,0,0,3.5,4.3,4.37,4.37,0,0,0,5.2-4.3Z"/><path class="cls-4" d="M319.7,38a4.37,4.37,0,0,0-5.2-4.3A4.48,4.48,0,0,0,311,38v8.6a4.3,4.3,0,0,0,3.5,4.3,4.37,4.37,0,0,0,5.2-4.3Z"/><path class="cls-4" d="M667.1,37.83a4.37,4.37,0,0,0-5.2-4.3,4.48,4.48,0,0,0-3.5,4.3v8.6a4.3,4.3,0,0,0,3.5,4.3,4.37,4.37,0,0,0,5.2-4.3Z"/><path class="cls-1" d="M710.6,7.3A4.37,4.37,0,0,0,705.4,3a4.48,4.48,0,0,0-3.5,4.3v8.6a4.3,4.3,0,0,0,3.5,4.3,4.37,4.37,0,0,0,5.2-4.3Z"/><path class="cls-4" d="M797.4,68.8a4.37,4.37,0,0,0-5.2-4.3,4.48,4.48,0,0,0-3.5,4.3v8.6a4.3,4.3,0,0,0,3.5,4.3,4.37,4.37,0,0,0,5.2-4.3Z"/><path class="cls-4" d="M906.15,37.83a4.37,4.37,0,0,0-5.2-4.3,4.48,4.48,0,0,0-3.5,4.3v8.6a4.3,4.3,0,0,0,3.5,4.3,4.37,4.37,0,0,0,5.2-4.3Z"/><path class="cls-4" d="M1123.5,68.53a4.37,4.37,0,0,0-5.2-4.3,4.48,4.48,0,0,0-3.5,4.3v8.6a4.3,4.3,0,0,0,3.5,4.3,4.37,4.37,0,0,0,5.2-4.3Z"/><path class="cls-4" d="M1340.8,38a4.37,4.37,0,0,0-5.2-4.3,4.48,4.48,0,0,0-3.5,4.3v8.6a4.3,4.3,0,0,0,3.5,4.3,4.37,4.37,0,0,0,5.2-4.3Z"/><path class="cls-4" d="M1514.65,68.8a4.37,4.37,0,0,0-5.2-4.3,4.48,4.48,0,0,0-3.5,4.3v8.6a4.3,4.3,0,0,0,3.5,4.3,4.37,4.37,0,0,0,5.2-4.3Z"/><path class="cls-4" d="M1775.5,68.53a4.37,4.37,0,0,0-5.2-4.3,4.48,4.48,0,0,0-3.5,4.3v8.6a4.3,4.3,0,0,0,3.5,4.3,4.37,4.37,0,0,0,5.2-4.3Z"/><path class="cls-4" d="M1884,7a4.37,4.37,0,0,0-5.2-4.3,4.48,4.48,0,0,0-3.5,4.3v8.6a4.3,4.3,0,0,0,3.5,4.3,4.37,4.37,0,0,0,5.2-4.3Z"/><path class="cls-4" d="M1666.9,37.83a4.37,4.37,0,0,0-5.2-4.3,4.48,4.48,0,0,0-3.5,4.3v8.6a4.3,4.3,0,0,0,3.5,4.3,4.37,4.37,0,0,0,5.2-4.3Z"/><path class="cls-4" d="M1167.1,38a4.37,4.37,0,0,0-5.2-4.3,4.48,4.48,0,0,0-3.5,4.3v8.6a4.3,4.3,0,0,0,3.5,4.3,4.37,4.37,0,0,0,5.2-4.3Z"/><path class="cls-1" d="M232.5,7.3A4.37,4.37,0,0,0,227.3,3a4.48,4.48,0,0,0-3.5,4.3v8.6a4.3,4.3,0,0,0,3.5,4.3,4.37,4.37,0,0,0,5.2-4.3Z"/><path class="cls-4" d="M102.2,68.73a4.37,4.37,0,0,0-5.2-4.3,4.48,4.48,0,0,0-3.5,4.3v8.6a4.3,4.3,0,0,0,3.5,4.3,4.37,4.37,0,0,0,5.2-4.3Z"/><path class="cls-4" d="M145.6,37.83a4.37,4.37,0,0,0-5.2-4.3,4.48,4.48,0,0,0-3.5,4.3v8.6a4.3,4.3,0,0,0,3.5,4.3,4.37,4.37,0,0,0,5.2-4.3Z"/><path class="cls-6" d="M515.1,38a4.37,4.37,0,0,0-5.2-4.3,4.48,4.48,0,0,0-3.5,4.3v8.6a4.3,4.3,0,0,0,3.5,4.3,4.37,4.37,0,0,0,5.2-4.3Z"/><path class="cls-2" d="M341.4,38a4.37,4.37,0,0,0-5.2-4.3,4.48,4.48,0,0,0-3.5,4.3v8.6a4.3,4.3,0,0,0,3.5,4.3,4.37,4.37,0,0,0,5.2-4.3Z"/><path class="cls-1" d="M406.5,38a4.37,4.37,0,0,0-5.2-4.3,4.48,4.48,0,0,0-3.5,4.3v8.6a4.3,4.3,0,0,0,3.5,4.3,4.37,4.37,0,0,0,5.2-4.3Z"/><path class="cls-1" d="M558.6,46.6a4.37,4.37,0,0,0-5.2-4.3,4.48,4.48,0,0,0-3.5,4.3h0a4.3,4.3,0,0,0,3.5,4.3,4.37,4.37,0,0,0,5.2-4.3Z"/><path class="cls-1" d="M493.4,46.6a4.37,4.37,0,0,0-5.2-4.3,4.48,4.48,0,0,0-3.5,4.3h0a4.3,4.3,0,0,0,3.5,4.3,4.37,4.37,0,0,0,5.2-4.3Z"/><path class="cls-1" d="M623.7,46.6a4.37,4.37,0,0,0-5.2-4.3,4.48,4.48,0,0,0-3.5,4.3h0a4.3,4.3,0,0,0,3.5,4.3,4.37,4.37,0,0,0,5.2-4.3Z"/><path class="cls-8" d="M319.7,46.6a4.37,4.37,0,0,0-5.2-4.3,4.48,4.48,0,0,0-3.5,4.3h0a4.3,4.3,0,0,0,3.5,4.3,4.37,4.37,0,0,0,5.2-4.3Z"/><path class="cls-3" d="M471.7,46.6a4.37,4.37,0,0,0-5.2-4.3,4.48,4.48,0,0,0-3.5,4.3h0a4.3,4.3,0,0,0,3.5,4.3,4.37,4.37,0,0,0,5.2-4.3Z"/><path class="cls-6" d="M450,46.6a4.37,4.37,0,0,0-5.2-4.3,4.48,4.48,0,0,0-3.5,4.3h0a4.3,4.3,0,0,0,3.5,4.3,4.37,4.37,0,0,0,5.2-4.3Z"/><path class="cls-8" d="M428.3,46.6a4.37,4.37,0,0,0-5.2-4.3,4.48,4.48,0,0,0-3.5,4.3h0a4.3,4.3,0,0,0,3.5,4.3,4.37,4.37,0,0,0,5.2-4.3Z"/><path class="cls-6" d="M384.8,46.6a4.37,4.37,0,0,0-5.2-4.3,4.48,4.48,0,0,0-3.5,4.3h0a4.3,4.3,0,0,0,3.5,4.3,4.37,4.37,0,0,0,5.2-4.3Z"/><path class="cls-7" d="M363.1,46.6a4.37,4.37,0,0,0-5.2-4.3,4.48,4.48,0,0,0-3.5,4.3h0a4.3,4.3,0,0,0,3.5,4.3,4.37,4.37,0,0,0,5.2-4.3Z"/><path class="cls-3" d="M1093.2,7.3a4.37,4.37,0,0,1,5.2-4.3,4.48,4.48,0,0,1,3.5,4.3v8.6a4.3,4.3,0,0,1-3.5,4.3,4.37,4.37,0,0,1-5.2-4.3Z"/><path class="cls-6" d="M1071.5,15.9a4.37,4.37,0,0,1,5.2-4.3,4.48,4.48,0,0,1,3.5,4.3h0a4.3,4.3,0,0,1-3.5,4.3,4.37,4.37,0,0,1-5.2-4.3Z"/><path class="cls-7" d="M1136.6,7.3a4.37,4.37,0,0,1,5.2-4.3,4.48,4.48,0,0,1,3.5,4.3v8.6a4.3,4.3,0,0,1-3.5,4.3,4.37,4.37,0,0,1-5.2-4.3Z"/><path class="cls-1" d="M1223.5,7.3a4.37,4.37,0,0,1,5.2-4.3,4.48,4.48,0,0,1,3.5,4.3v8.6a4.3,4.3,0,0,1-3.5,4.3,4.37,4.37,0,0,1-5.2-4.3Z"/><path class="cls-1" d="M1114.9,15.9a4.37,4.37,0,0,1,5.2-4.3,4.48,4.48,0,0,1,3.5,4.3h0a4.3,4.3,0,0,1-3.5,4.3,4.37,4.37,0,0,1-5.2-4.3Z"/><path class="cls-1" d="M1158.4,15.9a4.37,4.37,0,0,1,5.2-4.3,4.48,4.48,0,0,1,3.5,4.3h0a4.3,4.3,0,0,1-3.5,4.3,4.37,4.37,0,0,1-5.2-4.3Z"/><path class="cls-1" d="M1180.1,15.9a4.37,4.37,0,0,1,5.2-4.3,4.48,4.48,0,0,1,3.5,4.3h0a4.3,4.3,0,0,1-3.5,4.3,4.37,4.37,0,0,1-5.2-4.3Z"/><path class="cls-1" d="M1049.8,15.9a4.37,4.37,0,0,1,5.2-4.3,4.48,4.48,0,0,1,3.5,4.3h0a4.3,4.3,0,0,1-3.5,4.3,4.37,4.37,0,0,1-5.2-4.3Z"/><path class="cls-1" d="M1201.8,15.9a4.37,4.37,0,0,1,5.2-4.3,4.48,4.48,0,0,1,3.5,4.3h0a4.3,4.3,0,0,1-3.5,4.3,4.37,4.37,0,0,1-5.2-4.3Z"/><path class="cls-1" d="M984.5,7.3A4.37,4.37,0,0,1,989.7,3a4.48,4.48,0,0,1,3.5,4.3v8.6a4.3,4.3,0,0,1-3.5,4.3,4.37,4.37,0,0,1-5.2-4.3Z"/><path class="cls-2" d="M919.3,7.3A4.37,4.37,0,0,1,924.5,3,4.48,4.48,0,0,1,928,7.3v8.6a4.3,4.3,0,0,1-3.5,4.3,4.37,4.37,0,0,1-5.2-4.3Z"/><path class="cls-1" d="M941,7.3A4.37,4.37,0,0,1,946.2,3a4.48,4.48,0,0,1,3.5,4.3v8.6a4.3,4.3,0,0,1-3.5,4.3,4.37,4.37,0,0,1-5.2-4.3Z"/><path class="cls-1" d="M1006.2,15.9a4.37,4.37,0,0,1,5.2-4.3,4.48,4.48,0,0,1,3.5,4.3h0a4.3,4.3,0,0,1-3.5,4.3,4.37,4.37,0,0,1-5.2-4.3Z"/><path class="cls-1" d="M1027.9,15.9a4.37,4.37,0,0,1,5.2-4.3,4.48,4.48,0,0,1,3.5,4.3h0a4.3,4.3,0,0,1-3.5,4.3,4.37,4.37,0,0,1-5.2-4.3Z"/><path class="cls-1" d="M962.7,15.9a4.37,4.37,0,0,1,5.2-4.3,4.48,4.48,0,0,1,3.5,4.3h0a4.3,4.3,0,0,1-3.5,4.3,4.37,4.37,0,0,1-5.2-4.3Z"/><path class="cls-7" d="M962.7,68.8a4.37,4.37,0,0,1,5.2-4.3,4.48,4.48,0,0,1,3.5,4.3v8.6a4.3,4.3,0,0,1-3.5,4.3,4.37,4.37,0,0,1-5.2-4.3Z"/><path class="cls-4" d="M941,77.4a4.37,4.37,0,0,1,5.2-4.3,4.48,4.48,0,0,1,3.5,4.3h0a4.3,4.3,0,0,1-3.5,4.3,4.37,4.37,0,0,1-5.2-4.3Z"/><path class="cls-8" d="M1006.2,68.8a4.37,4.37,0,0,1,5.2-4.3,4.48,4.48,0,0,1,3.5,4.3v8.6a4.3,4.3,0,0,1-3.5,4.3,4.37,4.37,0,0,1-5.2-4.3Z"/><path class="cls-2" d="M1179.9,68.8a4.37,4.37,0,0,1,5.2-4.3,4.48,4.48,0,0,1,3.5,4.3v8.6a4.3,4.3,0,0,1-3.5,4.3,4.37,4.37,0,0,1-5.2-4.3Z"/><path class="cls-1" d="M919.3,68.8a4.37,4.37,0,0,1,5.2-4.3,4.48,4.48,0,0,1,3.5,4.3v8.6a4.3,4.3,0,0,1-3.5,4.3,4.37,4.37,0,0,1-5.2-4.3Z"/><path class="cls-3" d="M1049.8,68.8a4.37,4.37,0,0,1,5.2-4.3,4.48,4.48,0,0,1,3.5,4.3v8.6a4.3,4.3,0,0,1-3.5,4.3,4.37,4.37,0,0,1-5.2-4.3Z"/><path class="cls-6" d="M1093.1,68.8a4.37,4.37,0,0,1,5.2-4.3,4.48,4.48,0,0,1,3.5,4.3v8.6a4.3,4.3,0,0,1-3.5,4.3,4.37,4.37,0,0,1-5.2-4.3Z"/><path class="cls-8" d="M1136.5,68.8a4.37,4.37,0,0,1,5.2-4.3,4.48,4.48,0,0,1,3.5,4.3v8.6a4.3,4.3,0,0,1-3.5,4.3,4.37,4.37,0,0,1-5.2-4.3Z"/><path class="cls-6" d="M984.5,77.4a4.37,4.37,0,0,1,5.2-4.3,4.48,4.48,0,0,1,3.5,4.3h0a4.3,4.3,0,0,1-3.5,4.3,4.37,4.37,0,0,1-5.2-4.3Z"/><path class="cls-1" d="M1027.9,77.4a4.37,4.37,0,0,1,5.2-4.3,4.48,4.48,0,0,1,3.5,4.3h0a4.3,4.3,0,0,1-3.5,4.3,4.37,4.37,0,0,1-5.2-4.3Z"/><path class="cls-1" d="M1201.6,77.4a4.37,4.37,0,0,1,5.2-4.3,4.48,4.48,0,0,1,3.5,4.3h0a4.3,4.3,0,0,1-3.5,4.3,4.37,4.37,0,0,1-5.2-4.3Z"/><path class="cls-1" d="M1223.4,77.4a4.37,4.37,0,0,1,5.2-4.3,4.48,4.48,0,0,1,3.5,4.3h0a4.3,4.3,0,0,1-3.5,4.3,4.37,4.37,0,0,1-5.2-4.3Z"/><path class="cls-2" d="M1071.3,77.4a4.37,4.37,0,0,1,5.2-4.3,4.48,4.48,0,0,1,3.5,4.3h0a4.3,4.3,0,0,1-3.5,4.3,4.37,4.37,0,0,1-5.2-4.3Z"/><path class="cls-8" d="M1114.8,77.4a4.37,4.37,0,0,1,5.2-4.3,4.48,4.48,0,0,1,3.5,4.3h0a4.3,4.3,0,0,1-3.5,4.3,4.37,4.37,0,0,1-5.2-4.3Z"/><path class="cls-1" d="M1158.2,77.4a4.37,4.37,0,0,1,5.2-4.3,4.48,4.48,0,0,1,3.5,4.3h0a4.3,4.3,0,0,1-3.5,4.3,4.37,4.37,0,0,1-5.2-4.3Z"/><path class="cls-5" d="M1210.4,38a4.37,4.37,0,0,0-5.2-4.3,4.48,4.48,0,0,0-3.5,4.3v8.6a4.3,4.3,0,0,0,3.5,4.3,4.37,4.37,0,0,0,5.2-4.3Z"/><path class="cls-1" d="M1188.7,46.6a4.37,4.37,0,0,0-5.2-4.3,4.48,4.48,0,0,0-3.5,4.3h0a4.3,4.3,0,0,0,3.5,4.3,4.37,4.37,0,0,0,5.2-4.3Z"/><path class="cls-1" d="M1145.2,38a4.37,4.37,0,0,0-5.2-4.3,4.48,4.48,0,0,0-3.5,4.3v8.6a4.3,4.3,0,0,0,3.5,4.3,4.37,4.37,0,0,0,5.2-4.3Z"/><path class="cls-3" d="M1123.5,38a4.37,4.37,0,0,0-5.2-4.3,4.48,4.48,0,0,0-3.5,4.3v8.6a4.3,4.3,0,0,0,3.5,4.3,4.37,4.37,0,0,0,5.2-4.3Z"/><path class="cls-3" d="M971.5,38a4.37,4.37,0,0,0-5.2-4.3,4.48,4.48,0,0,0-3.5,4.3v8.6a4.3,4.3,0,0,0,3.5,4.3,4.37,4.37,0,0,0,5.2-4.3Z"/><path class="cls-1" d="M949.8,38a4.37,4.37,0,0,0-5.2-4.3,4.48,4.48,0,0,0-3.5,4.3v8.6a4.3,4.3,0,0,0,3.5,4.3,4.37,4.37,0,0,0,5.2-4.3Z"/><path class="cls-1" d="M1014.9,38a4.37,4.37,0,0,0-5.2-4.3,4.48,4.48,0,0,0-3.5,4.3v8.6a4.3,4.3,0,0,0,3.5,4.3,4.37,4.37,0,0,0,5.2-4.3Z"/><path class="cls-6" d="M1166.9,46.6a4.37,4.37,0,0,0-5.2-4.3,4.48,4.48,0,0,0-3.5,4.3h0a4.3,4.3,0,0,0,3.5,4.3,4.37,4.37,0,0,0,5.2-4.3Z"/><path class="cls-2" d="M1101.8,46.6a4.37,4.37,0,0,0-5.2-4.3,4.48,4.48,0,0,0-3.5,4.3h0a4.3,4.3,0,0,0,3.5,4.3,4.37,4.37,0,0,0,5.2-4.3Z"/><path class="cls-1" d="M1232.1,46.6a4.37,4.37,0,0,0-5.2-4.3,4.48,4.48,0,0,0-3.5,4.3h0a4.3,4.3,0,0,0,3.5,4.3,4.37,4.37,0,0,0,5.2-4.3Z"/><path class="cls-2" d="M928,46.6a4.37,4.37,0,0,0-5.2-4.3,4.48,4.48,0,0,0-3.5,4.3h0a4.3,4.3,0,0,0,3.5,4.3,4.37,4.37,0,0,0,5.2-4.3Z"/><path class="cls-1" d="M1080.1,46.6a4.37,4.37,0,0,0-5.2-4.3,4.48,4.48,0,0,0-3.5,4.3h0a4.3,4.3,0,0,0,3.5,4.3,4.37,4.37,0,0,0,5.2-4.3Z"/><path class="cls-6" d="M1058.3,46.6a4.37,4.37,0,0,0-5.2-4.3,4.48,4.48,0,0,0-3.5,4.3h0a4.3,4.3,0,0,0,3.5,4.3,4.37,4.37,0,0,0,5.2-4.3Z"/><path class="cls-8" d="M1036.6,46.6a4.37,4.37,0,0,0-5.2-4.3,4.48,4.48,0,0,0-3.5,4.3h0a4.3,4.3,0,0,0,3.5,4.3,4.37,4.37,0,0,0,5.2-4.3Z"/><path class="cls-1" d="M993.2,46.6a4.37,4.37,0,0,0-5.2-4.3,4.48,4.48,0,0,0-3.5,4.3h0a4.3,4.3,0,0,0,3.5,4.3,4.37,4.37,0,0,0,5.2-4.3Z"/><path class="cls-1" d="M1897.1,7.3a4.37,4.37,0,0,1,5.2-4.3,4.48,4.48,0,0,1,3.5,4.3v8.6a4.3,4.3,0,0,1-3.5,4.3,4.37,4.37,0,0,1-5.2-4.3Z"/><path class="cls-1" d="M1853.6,7.3a4.37,4.37,0,0,1,5.2-4.3,4.48,4.48,0,0,1,3.5,4.3v8.6a4.3,4.3,0,0,1-3.5,4.3,4.37,4.37,0,0,1-5.2-4.3Z"/><path class="cls-6" d="M1875.3,15.9a4.37,4.37,0,0,1,5.2-4.3,4.48,4.48,0,0,1,3.5,4.3h0a4.3,4.3,0,0,1-3.5,4.3,4.37,4.37,0,0,1-5.2-4.3Z"/><path class="cls-8" d="M1875.3,68.8a4.37,4.37,0,0,1,5.2-4.3,4.48,4.48,0,0,1,3.5,4.3v8.6a4.3,4.3,0,0,1-3.5,4.3,4.37,4.37,0,0,1-5.2-4.3Z"/><path class="cls-2" d="M1853.6,77.4a4.37,4.37,0,0,1,5.2-4.3,4.48,4.48,0,0,1,3.5,4.3h0a4.3,4.3,0,0,1-3.5,4.3,4.37,4.37,0,0,1-5.2-4.3Z"/><path class="cls-6" d="M1897.1,77.4a4.37,4.37,0,0,1,5.2-4.3,4.48,4.48,0,0,1,3.5,4.3h0a4.3,4.3,0,0,1-3.5,4.3,4.37,4.37,0,0,1-5.2-4.3Z"/><path class="cls-8" d="M1884.1,38a4.37,4.37,0,0,0-5.2-4.3,4.48,4.48,0,0,0-3.5,4.3v8.6a4.3,4.3,0,0,0,3.5,4.3,4.37,4.37,0,0,0,5.2-4.3Z"/><path class="cls-1" d="M1862.3,38a4.37,4.37,0,0,0-5.2-4.3,4.48,4.48,0,0,0-3.5,4.3v8.6a4.3,4.3,0,0,0,3.5,4.3,4.37,4.37,0,0,0,5.2-4.3Z"/><path class="cls-1" d="M1840.6,46.6a4.37,4.37,0,0,0-5.2-4.3,4.48,4.48,0,0,0-3.5,4.3h0a4.3,4.3,0,0,0,3.5,4.3,4.37,4.37,0,0,0,5.2-4.3Z"/><path class="cls-2" d="M1905.8,46.6a4.37,4.37,0,0,0-5.2-4.3,4.48,4.48,0,0,0-3.5,4.3h0a4.3,4.3,0,0,0,3.5,4.3,4.37,4.37,0,0,0,5.2-4.3Z"/><path class="cls-1" d="M254.2,7.3A4.37,4.37,0,0,0,249,3a4.48,4.48,0,0,0-3.5,4.3v8.6a4.3,4.3,0,0,0,3.5,4.3,4.37,4.37,0,0,0,5.2-4.3Z"/><path class="cls-7" d="M275.9,15.9a4.37,4.37,0,0,0-5.2-4.3,4.48,4.48,0,0,0-3.5,4.3h0a4.3,4.3,0,0,0,3.5,4.3,4.37,4.37,0,0,0,5.2-4.3Z"/><path class="cls-8" d="M210.8,7.3A4.37,4.37,0,0,0,205.6,3a4.48,4.48,0,0,0-3.5,4.3v8.6a4.3,4.3,0,0,0,3.5,4.3,4.37,4.37,0,0,0,5.2-4.3Z"/><path class="cls-4" d="M37,7.3A4.37,4.37,0,0,0,31.8,3a4.48,4.48,0,0,0-3.5,4.3v8.6a4.3,4.3,0,0,0,3.5,4.3A4.37,4.37,0,0,0,37,15.9Z"/><path class="cls-1" d="M123.9,7.3A4.37,4.37,0,0,0,118.7,3a4.48,4.48,0,0,0-3.5,4.3v8.6a4.3,4.3,0,0,0,3.5,4.3,4.37,4.37,0,0,0,5.2-4.3Z"/><path class="cls-1" d="M102.2,7.3A4.37,4.37,0,0,0,97,3a4.48,4.48,0,0,0-3.5,4.3v8.6A4.3,4.3,0,0,0,97,20.2a4.37,4.37,0,0,0,5.2-4.3Z"/><path class="cls-1" d="M80.5,7.3A4.37,4.37,0,0,0,75.3,3a4.48,4.48,0,0,0-3.5,4.3v8.6a4.3,4.3,0,0,0,3.5,4.3,4.37,4.37,0,0,0,5.2-4.3Z"/><path class="cls-1" d="M232.5,15.9a4.37,4.37,0,0,0-5.2-4.3,4.48,4.48,0,0,0-3.5,4.3h0a4.3,4.3,0,0,0,3.5,4.3,4.37,4.37,0,0,0,5.2-4.3Z"/><path class="cls-3" d="M189.1,15.9a4.37,4.37,0,0,0-5.2-4.3,4.48,4.48,0,0,0-3.5,4.3h0a4.3,4.3,0,0,0,3.5,4.3,4.37,4.37,0,0,0,5.2-4.3Z"/><path class="cls-1" d="M167.4,15.9a4.37,4.37,0,0,0-5.2-4.3,4.48,4.48,0,0,0-3.5,4.3h0a4.3,4.3,0,0,0,3.5,4.3,4.37,4.37,0,0,0,5.2-4.3Z"/><path class="cls-1" d="M297.7,15.9a4.37,4.37,0,0,0-5.2-4.3,4.48,4.48,0,0,0-3.5,4.3h0a4.3,4.3,0,0,0,3.5,4.3,4.37,4.37,0,0,0,5.2-4.3Z"/><path class="cls-1" d="M15.3,15.9a4.37,4.37,0,0,0-5.2-4.3,4.48,4.48,0,0,0-3.5,4.3h0a4.3,4.3,0,0,0,3.5,4.3,4.37,4.37,0,0,0,5.2-4.3Z"/><path class="cls-4" d="M145.6,15.9a4.37,4.37,0,0,0-5.2-4.3,4.48,4.48,0,0,0-3.5,4.3h0a4.3,4.3,0,0,0,3.5,4.3,4.37,4.37,0,0,0,5.2-4.3Z"/><path class="cls-8" d="M58.8,15.9a4.37,4.37,0,0,0-5.2-4.3,4.48,4.48,0,0,0-3.5,4.3h0a4.3,4.3,0,0,0,3.5,4.3,4.37,4.37,0,0,0,5.2-4.3Z"/><path class="cls-7" d="M28.3,68.8a4.37,4.37,0,0,1,5.2-4.3A4.48,4.48,0,0,1,37,68.8v8.6a4.3,4.3,0,0,1-3.5,4.3,4.37,4.37,0,0,1-5.2-4.3Z"/><path class="cls-5" d="M6.6,77.4a4.37,4.37,0,0,1,5.2-4.3,4.48,4.48,0,0,1,3.5,4.3h0a4.3,4.3,0,0,1-3.5,4.3,4.37,4.37,0,0,1-5.2-4.3Z"/><path class="cls-2" d="M71.8,68.8A4.37,4.37,0,0,1,77,64.5a4.48,4.48,0,0,1,3.5,4.3v8.6A4.3,4.3,0,0,1,77,81.7a4.37,4.37,0,0,1-5.2-4.3Z"/><path class="cls-5" d="M245.5,68.8a4.37,4.37,0,0,1,5.2-4.3,4.48,4.48,0,0,1,3.5,4.3v8.6a4.3,4.3,0,0,1-3.5,4.3,4.37,4.37,0,0,1-5.2-4.3Z"/><path class="cls-1" d="M115.3,68.8a4.37,4.37,0,0,1,5.2-4.3,4.48,4.48,0,0,1,3.5,4.3v8.6a4.3,4.3,0,0,1-3.5,4.3,4.37,4.37,0,0,1-5.2-4.3Z"/><path class="cls-3" d="M158.6,68.8a4.37,4.37,0,0,1,5.2-4.3,4.48,4.48,0,0,1,3.5,4.3v8.6a4.3,4.3,0,0,1-3.5,4.3,4.37,4.37,0,0,1-5.2-4.3Z"/><path class="cls-2" d="M50,77.4a4.37,4.37,0,0,1,5.2-4.3,4.48,4.48,0,0,1,3.5,4.3h0a4.3,4.3,0,0,1-3.5,4.3A4.37,4.37,0,0,1,50,77.4Z"/><path class="cls-6" d="M93.5,77.4a4.37,4.37,0,0,1,5.2-4.3,4.48,4.48,0,0,1,3.5,4.3h0a4.3,4.3,0,0,1-3.5,4.3,4.37,4.37,0,0,1-5.2-4.3Z"/><path class="cls-7" d="M267.2,77.4a4.37,4.37,0,0,1,5.2-4.3,4.48,4.48,0,0,1,3.5,4.3h0a4.3,4.3,0,0,1-3.5,4.3,4.37,4.37,0,0,1-5.2-4.3Z"/><path class="cls-1" d="M288.9,77.4a4.37,4.37,0,0,1,5.2-4.3,4.48,4.48,0,0,1,3.5,4.3h0a4.3,4.3,0,0,1-3.5,4.3,4.37,4.37,0,0,1-5.2-4.3Z"/><path class="cls-7" d="M136.9,77.4a4.37,4.37,0,0,1,5.2-4.3,4.48,4.48,0,0,1,3.5,4.3h0a4.3,4.3,0,0,1-3.5,4.3,4.37,4.37,0,0,1-5.2-4.3Z"/><path class="cls-2" d="M180.3,77.4a4.37,4.37,0,0,1,5.2-4.3,4.48,4.48,0,0,1,3.5,4.3h0a4.3,4.3,0,0,1-3.5,4.3,4.37,4.37,0,0,1-5.2-4.3Z"/><path class="cls-7" d="M223.8,77.4a4.37,4.37,0,0,1,5.2-4.3,4.48,4.48,0,0,1,3.5,4.3h0a4.3,4.3,0,0,1-3.5,4.3,4.37,4.37,0,0,1-5.2-4.3Z"/><path class="cls-1" d="M275.9,38a4.37,4.37,0,0,0-5.2-4.3,4.48,4.48,0,0,0-3.5,4.3v8.6a4.3,4.3,0,0,0,3.5,4.3,4.37,4.37,0,0,0,5.2-4.3Z"/><path class="cls-1" d="M254.2,46.6a4.37,4.37,0,0,0-5.2-4.3,4.48,4.48,0,0,0-3.5,4.3h0a4.3,4.3,0,0,0,3.5,4.3,4.37,4.37,0,0,0,5.2-4.3Z"/><path class="cls-2" d="M210.8,38a4.37,4.37,0,0,0-5.2-4.3,4.48,4.48,0,0,0-3.5,4.3v8.6a4.3,4.3,0,0,0,3.5,4.3,4.37,4.37,0,0,0,5.2-4.3Z"/><path class="cls-1" d="M189.1,38a4.37,4.37,0,0,0-5.2-4.3,4.48,4.48,0,0,0-3.5,4.3v8.6a4.3,4.3,0,0,0,3.5,4.3,4.37,4.37,0,0,0,5.2-4.3Z"/><path class="cls-1" d="M37,38a4.37,4.37,0,0,0-5.2-4.3A4.48,4.48,0,0,0,28.3,38v8.6a4.3,4.3,0,0,0,3.5,4.3A4.37,4.37,0,0,0,37,46.6Z"/><path class="cls-3" d="M15.3,38a4.37,4.37,0,0,0-5.2-4.3A4.48,4.48,0,0,0,6.6,38v8.6a4.3,4.3,0,0,0,3.5,4.3,4.37,4.37,0,0,0,5.2-4.3Z"/><path class="cls-7" d="M80.5,38a4.37,4.37,0,0,0-5.2-4.3A4.48,4.48,0,0,0,71.8,38v8.6a4.3,4.3,0,0,0,3.5,4.3,4.37,4.37,0,0,0,5.2-4.3Z"/><path class="cls-6" d="M232.5,46.6a4.37,4.37,0,0,0-5.2-4.3,4.48,4.48,0,0,0-3.5,4.3h0a4.3,4.3,0,0,0,3.5,4.3,4.37,4.37,0,0,0,5.2-4.3Z"/><path class="cls-1" d="M210.8,77.4a4.37,4.37,0,0,0-5.2-4.3,4.48,4.48,0,0,0-3.5,4.3h0a4.3,4.3,0,0,0,3.5,4.3,4.37,4.37,0,0,0,5.2-4.3Z"/><path class="cls-8" d="M167.4,46.6a4.37,4.37,0,0,0-5.2-4.3,4.48,4.48,0,0,0-3.5,4.3h0a4.3,4.3,0,0,0,3.5,4.3,4.37,4.37,0,0,0,5.2-4.3Z"/><path class="cls-3" d="M297.7,46.6a4.37,4.37,0,0,0-5.2-4.3,4.48,4.48,0,0,0-3.5,4.3h0a4.3,4.3,0,0,0,3.5,4.3,4.37,4.37,0,0,0,5.2-4.3Z"/><path class="cls-6" d="M145.6,46.6a4.37,4.37,0,0,0-5.2-4.3,4.48,4.48,0,0,0-3.5,4.3h0a4.3,4.3,0,0,0,3.5,4.3,4.37,4.37,0,0,0,5.2-4.3Z"/><path class="cls-8" d="M123.9,46.6a4.37,4.37,0,0,0-5.2-4.3,4.48,4.48,0,0,0-3.5,4.3h0a4.3,4.3,0,0,0,3.5,4.3,4.37,4.37,0,0,0,5.2-4.3Z"/><path class="cls-7" d="M102.2,46.6A4.37,4.37,0,0,0,97,42.3a4.48,4.48,0,0,0-3.5,4.3h0A4.3,4.3,0,0,0,97,50.9a4.37,4.37,0,0,0,5.2-4.3Z"/><path class="cls-1" d="M58.8,46.6a4.37,4.37,0,0,0-5.2-4.3,4.48,4.48,0,0,0-3.5,4.3h0a4.3,4.3,0,0,0,3.5,4.3,4.37,4.37,0,0,0,5.2-4.3Z"/><path class="cls-1" d="M767.1,7.3A4.37,4.37,0,0,1,772.3,3a4.48,4.48,0,0,1,3.5,4.3v8.6a4.3,4.3,0,0,1-3.5,4.3,4.37,4.37,0,0,1-5.2-4.3Z"/><path class="cls-1" d="M745.4,15.9a4.37,4.37,0,0,1,5.2-4.3,4.48,4.48,0,0,1,3.5,4.3h0a4.3,4.3,0,0,1-3.5,4.3,4.37,4.37,0,0,1-5.2-4.3Z"/><path class="cls-1" d="M810.6,7.3A4.37,4.37,0,0,1,815.8,3a4.48,4.48,0,0,1,3.5,4.3v8.6a4.3,4.3,0,0,1-3.5,4.3,4.37,4.37,0,0,1-5.2-4.3Z"/><path class="cls-4" d="M897.4,7.3A4.37,4.37,0,0,1,902.6,3a4.48,4.48,0,0,1,3.5,4.3v8.6a4.3,4.3,0,0,1-3.5,4.3,4.37,4.37,0,0,1-5.2-4.3Z"/><path class="cls-2" d="M788.9,15.9a4.37,4.37,0,0,1,5.2-4.3,4.48,4.48,0,0,1,3.5,4.3h0a4.3,4.3,0,0,1-3.5,4.3,4.37,4.37,0,0,1-5.2-4.3Z"/><path class="cls-1" d="M832.3,15.9a4.37,4.37,0,0,1,5.2-4.3,4.48,4.48,0,0,1,3.5,4.3h0a4.3,4.3,0,0,1-3.5,4.3,4.37,4.37,0,0,1-5.2-4.3Z"/><path class="cls-2" d="M854,15.9a4.37,4.37,0,0,1,5.2-4.3,4.48,4.48,0,0,1,3.5,4.3h0a4.3,4.3,0,0,1-3.5,4.3,4.37,4.37,0,0,1-5.2-4.3Z"/><path class="cls-7" d="M723.7,15.9a4.37,4.37,0,0,1,5.2-4.3,4.48,4.48,0,0,1,3.5,4.3h0a4.3,4.3,0,0,1-3.5,4.3,4.37,4.37,0,0,1-5.2-4.3Z"/><path class="cls-1" d="M875.7,15.9a4.37,4.37,0,0,1,5.2-4.3,4.48,4.48,0,0,1,3.5,4.3h0a4.3,4.3,0,0,1-3.5,4.3,4.37,4.37,0,0,1-5.2-4.3Z"/><path class="cls-1" d="M658.4,7.3A4.37,4.37,0,0,1,663.6,3a4.48,4.48,0,0,1,3.5,4.3v8.6a4.3,4.3,0,0,1-3.5,4.3,4.37,4.37,0,0,1-5.2-4.3Z"/><path class="cls-8" d="M615,7.3A4.37,4.37,0,0,1,620.2,3a4.48,4.48,0,0,1,3.5,4.3v8.6a4.3,4.3,0,0,1-3.5,4.3,4.37,4.37,0,0,1-5.2-4.3Z"/><path class="cls-1" d="M680.1,15.9a4.37,4.37,0,0,1,5.2-4.3,4.48,4.48,0,0,1,3.5,4.3h0a4.3,4.3,0,0,1-3.5,4.3,4.37,4.37,0,0,1-5.2-4.3Z"/><path class="cls-1" d="M701.8,15.9a4.37,4.37,0,0,1,5.2-4.3,4.48,4.48,0,0,1,3.5,4.3h0a4.3,4.3,0,0,1-3.5,4.3,4.37,4.37,0,0,1-5.2-4.3Z"/><path class="cls-8" d="M636.7,15.9a4.37,4.37,0,0,1,5.2-4.3,4.48,4.48,0,0,1,3.5,4.3h0a4.3,4.3,0,0,1-3.5,4.3,4.37,4.37,0,0,1-5.2-4.3Z"/><path class="cls-1" d="M636.7,68.8a4.37,4.37,0,0,1,5.2-4.3,4.48,4.48,0,0,1,3.5,4.3v8.6a4.3,4.3,0,0,1-3.5,4.3,4.37,4.37,0,0,1-5.2-4.3Z"/><path class="cls-8" d="M615,77.4a4.37,4.37,0,0,1,5.2-4.3,4.48,4.48,0,0,1,3.5,4.3h0a4.3,4.3,0,0,1-3.5,4.3,4.37,4.37,0,0,1-5.2-4.3Z"/><path class="cls-2" d="M680.1,68.8a4.37,4.37,0,0,1,5.2-4.3,4.48,4.48,0,0,1,3.5,4.3v8.6a4.3,4.3,0,0,1-3.5,4.3,4.37,4.37,0,0,1-5.2-4.3Z"/><path class="cls-7" d="M853.9,68.8a4.37,4.37,0,0,1,5.2-4.3,4.48,4.48,0,0,1,3.5,4.3v8.6a4.3,4.3,0,0,1-3.5,4.3,4.37,4.37,0,0,1-5.2-4.3Z"/><path class="cls-5" d="M723.7,68.8a4.37,4.37,0,0,1,5.2-4.3,4.48,4.48,0,0,1,3.5,4.3v8.6a4.3,4.3,0,0,1-3.5,4.3,4.37,4.37,0,0,1-5.2-4.3Z"/><path class="cls-5" d="M767,68.8a4.37,4.37,0,0,1,5.2-4.3,4.48,4.48,0,0,1,3.5,4.3v8.6a4.3,4.3,0,0,1-3.5,4.3,4.37,4.37,0,0,1-5.2-4.3Z"/><path class="cls-2" d="M810.4,68.8a4.37,4.37,0,0,1,5.2-4.3,4.48,4.48,0,0,1,3.5,4.3v8.6a4.3,4.3,0,0,1-3.5,4.3,4.37,4.37,0,0,1-5.2-4.3Z"/><path class="cls-7" d="M658.4,77.4a4.37,4.37,0,0,1,5.2-4.3,4.48,4.48,0,0,1,3.5,4.3h0a4.3,4.3,0,0,1-3.5,4.3,4.37,4.37,0,0,1-5.2-4.3Z"/><path class="cls-6" d="M701.8,77.4a4.37,4.37,0,0,1,5.2-4.3,4.48,4.48,0,0,1,3.5,4.3h0a4.3,4.3,0,0,1-3.5,4.3,4.37,4.37,0,0,1-5.2-4.3Z"/><path class="cls-1" d="M875.6,77.4a4.37,4.37,0,0,1,5.2-4.3,4.48,4.48,0,0,1,3.5,4.3h0a4.3,4.3,0,0,1-3.5,4.3,4.37,4.37,0,0,1-5.2-4.3Z"/><path class="cls-3" d="M897.3,77.4a4.37,4.37,0,0,1,5.2-4.3,4.48,4.48,0,0,1,3.5,4.3h0a4.3,4.3,0,0,1-3.5,4.3,4.37,4.37,0,0,1-5.2-4.3Z"/><path class="cls-1" d="M745.3,77.4a4.37,4.37,0,0,1,5.2-4.3,4.48,4.48,0,0,1,3.5,4.3h0a4.3,4.3,0,0,1-3.5,4.3,4.37,4.37,0,0,1-5.2-4.3Z"/><path class="cls-5" d="M788.7,77.4a4.37,4.37,0,0,1,5.2-4.3,4.48,4.48,0,0,1,3.5,4.3h0a4.3,4.3,0,0,1-3.5,4.3,4.37,4.37,0,0,1-5.2-4.3Z"/><path class="cls-6" d="M832.1,77.4a4.37,4.37,0,0,1,5.2-4.3,4.48,4.48,0,0,1,3.5,4.3h0a4.3,4.3,0,0,1-3.5,4.3,4.37,4.37,0,0,1-5.2-4.3Z"/><path class="cls-1" d="M884.3,38a4.37,4.37,0,0,0-5.2-4.3,4.48,4.48,0,0,0-3.5,4.3v8.6a4.3,4.3,0,0,0,3.5,4.3,4.37,4.37,0,0,0,5.2-4.3Z"/><path class="cls-1" d="M862.6,46.6a4.37,4.37,0,0,0-5.2-4.3,4.48,4.48,0,0,0-3.5,4.3h0a4.3,4.3,0,0,0,3.5,4.3,4.37,4.37,0,0,0,5.2-4.3Z"/><path class="cls-6" d="M819.2,38a4.37,4.37,0,0,0-5.2-4.3,4.48,4.48,0,0,0-3.5,4.3v8.6a4.3,4.3,0,0,0,3.5,4.3,4.37,4.37,0,0,0,5.2-4.3Z"/><path class="cls-7" d="M797.4,38a4.37,4.37,0,0,0-5.2-4.3,4.48,4.48,0,0,0-3.5,4.3v8.6a4.3,4.3,0,0,0,3.5,4.3,4.37,4.37,0,0,0,5.2-4.3Z"/><path class="cls-2" d="M645.4,38a4.37,4.37,0,0,0-5.2-4.3,4.48,4.48,0,0,0-3.5,4.3v8.6a4.3,4.3,0,0,0,3.5,4.3,4.37,4.37,0,0,0,5.2-4.3Z"/><path class="cls-1" d="M688.9,38a4.37,4.37,0,0,0-5.2-4.3,4.48,4.48,0,0,0-3.5,4.3v8.6a4.3,4.3,0,0,0,3.5,4.3,4.37,4.37,0,0,0,5.2-4.3Z"/><path class="cls-1" d="M840.9,46.6a4.37,4.37,0,0,0-5.2-4.3,4.48,4.48,0,0,0-3.5,4.3h0a4.3,4.3,0,0,0,3.5,4.3,4.37,4.37,0,0,0,5.2-4.3Z"/><path class="cls-1" d="M775.7,46.6a4.37,4.37,0,0,0-5.2-4.3,4.48,4.48,0,0,0-3.5,4.3h0a4.3,4.3,0,0,0,3.5,4.3,4.37,4.37,0,0,0,5.2-4.3Z"/><path class="cls-6" d="M906,46.6a4.37,4.37,0,0,0-5.2-4.3,4.48,4.48,0,0,0-3.5,4.3h0a4.3,4.3,0,0,0,3.5,4.3,4.37,4.37,0,0,0,5.2-4.3Z"/><path class="cls-3" d="M754,46.6a4.37,4.37,0,0,0-5.2-4.3,4.48,4.48,0,0,0-3.5,4.3h0a4.3,4.3,0,0,0,3.5,4.3,4.37,4.37,0,0,0,5.2-4.3Z"/><path class="cls-2" d="M732.3,46.6a4.37,4.37,0,0,0-5.2-4.3,4.48,4.48,0,0,0-3.5,4.3h0a4.3,4.3,0,0,0,3.5,4.3,4.37,4.37,0,0,0,5.2-4.3Z"/><path class="cls-6" d="M710.6,46.6a4.37,4.37,0,0,0-5.2-4.3,4.48,4.48,0,0,0-3.5,4.3h0a4.3,4.3,0,0,0,3.5,4.3,4.37,4.37,0,0,0,5.2-4.3Z"/><path class="cls-8" d="M667.1,46.6a4.37,4.37,0,0,0-5.2-4.3,4.48,4.48,0,0,0-3.5,4.3h0a4.3,4.3,0,0,0,3.5,4.3,4.37,4.37,0,0,0,5.2-4.3Z"/><path class="cls-1" d="M1797.2,7.1a4.37,4.37,0,0,0-5.2-4.3,4.48,4.48,0,0,0-3.5,4.3v8.6A4.3,4.3,0,0,0,1792,20a4.37,4.37,0,0,0,5.2-4.3Z"/><path class="cls-1" d="M1818.9,15.7a4.37,4.37,0,0,0-5.2-4.3,4.48,4.48,0,0,0-3.5,4.3h0a4.3,4.3,0,0,0,3.5,4.3,4.37,4.37,0,0,0,5.2-4.3Z"/><path class="cls-2" d="M1753.8,7.1a4.37,4.37,0,0,0-5.2-4.3,4.48,4.48,0,0,0-3.5,4.3v8.6a4.3,4.3,0,0,0,3.5,4.3,4.37,4.37,0,0,0,5.2-4.3Z"/><path class="cls-1" d="M1580,7.1a4.37,4.37,0,0,0-5.2-4.3,4.48,4.48,0,0,0-3.5,4.3v8.6a4.3,4.3,0,0,0,3.5,4.3,4.37,4.37,0,0,0,5.2-4.3Z"/><path class="cls-1" d="M1666.9,7.1a4.37,4.37,0,0,0-5.2-4.3,4.48,4.48,0,0,0-3.5,4.3v8.6a4.3,4.3,0,0,0,3.5,4.3,4.37,4.37,0,0,0,5.2-4.3Z"/><path class="cls-1" d="M1645.2,7.1a4.37,4.37,0,0,0-5.2-4.3,4.48,4.48,0,0,0-3.5,4.3v8.6A4.3,4.3,0,0,0,1640,20a4.37,4.37,0,0,0,5.2-4.3Z"/><path class="cls-1" d="M1623.4,7.1a4.37,4.37,0,0,0-5.2-4.3,4.48,4.48,0,0,0-3.5,4.3v8.6a4.3,4.3,0,0,0,3.5,4.3,4.37,4.37,0,0,0,5.2-4.3Z"/><path class="cls-4" d="M1775.5,15.7a4.37,4.37,0,0,0-5.2-4.3,4.48,4.48,0,0,0-3.5,4.3h0a4.3,4.3,0,0,0,3.5,4.3,4.37,4.37,0,0,0,5.2-4.3Z"/><path class="cls-7" d="M1732,15.7a4.37,4.37,0,0,0-5.2-4.3,4.48,4.48,0,0,0-3.5,4.3h0a4.3,4.3,0,0,0,3.5,4.3,4.37,4.37,0,0,0,5.2-4.3Z"/><path class="cls-1" d="M1710.3,15.7a4.37,4.37,0,0,0-5.2-4.3,4.48,4.48,0,0,0-3.5,4.3h0a4.3,4.3,0,0,0,3.5,4.3,4.37,4.37,0,0,0,5.2-4.3Z"/><path class="cls-1" d="M1840.6,15.7a4.37,4.37,0,0,0-5.2-4.3,4.48,4.48,0,0,0-3.5,4.3h0a4.3,4.3,0,0,0,3.5,4.3,4.37,4.37,0,0,0,5.2-4.3Z"/><path class="cls-1" d="M1558.3,15.7a4.37,4.37,0,0,0-5.2-4.3,4.48,4.48,0,0,0-3.5,4.3h0a4.3,4.3,0,0,0,3.5,4.3,4.37,4.37,0,0,0,5.2-4.3Z"/><path class="cls-1" d="M1645.2,15.7a4.37,4.37,0,0,0-5.2-4.3,4.48,4.48,0,0,0-3.5,4.3h0A4.3,4.3,0,0,0,1640,20a4.37,4.37,0,0,0,5.2-4.3Z"/><path class="cls-1" d="M1536.6,15.7a4.37,4.37,0,0,0-5.2-4.3,4.48,4.48,0,0,0-3.5,4.3h0a4.3,4.3,0,0,0,3.5,4.3,4.37,4.37,0,0,0,5.2-4.3Z"/><path class="cls-1" d="M1688.6,15.7a4.37,4.37,0,0,0-5.2-4.3,4.48,4.48,0,0,0-3.5,4.3h0a4.3,4.3,0,0,0,3.5,4.3,4.37,4.37,0,0,0,5.2-4.3Z"/><path class="cls-1" d="M1601.7,15.7a4.37,4.37,0,0,0-5.2-4.3,4.48,4.48,0,0,0-3.5,4.3h0a4.3,4.3,0,0,0,3.5,4.3,4.37,4.37,0,0,0,5.2-4.3Z"/><path class="cls-5" d="M1571.3,68.6a4.37,4.37,0,0,1,5.2-4.3,4.48,4.48,0,0,1,3.5,4.3v8.6a4.3,4.3,0,0,1-3.5,4.3,4.37,4.37,0,0,1-5.2-4.3Z"/><path class="cls-2" d="M1549.6,77.2a4.37,4.37,0,0,1,5.2-4.3,4.48,4.48,0,0,1,3.5,4.3h0a4.3,4.3,0,0,1-3.5,4.3,4.37,4.37,0,0,1-5.2-4.3Z"/><path class="cls-2" d="M1614.7,68.6a4.37,4.37,0,0,1,5.2-4.3,4.48,4.48,0,0,1,3.5,4.3v8.6a4.3,4.3,0,0,1-3.5,4.3,4.37,4.37,0,0,1-5.2-4.3Z"/><path class="cls-2" d="M1788.5,68.6a4.37,4.37,0,0,1,5.2-4.3,4.48,4.48,0,0,1,3.5,4.3v8.6a4.3,4.3,0,0,1-3.5,4.3,4.37,4.37,0,0,1-5.2-4.3Z"/><path class="cls-6" d="M1527.8,68.6a4.37,4.37,0,0,1,5.2-4.3,4.48,4.48,0,0,1,3.5,4.3v8.6a4.3,4.3,0,0,1-3.5,4.3,4.37,4.37,0,0,1-5.2-4.3Z"/><path class="cls-1" d="M1658.3,68.6a4.37,4.37,0,0,1,5.2-4.3,4.48,4.48,0,0,1,3.5,4.3v8.6a4.3,4.3,0,0,1-3.5,4.3,4.37,4.37,0,0,1-5.2-4.3Z"/><path class="cls-5" d="M1701.6,68.6a4.37,4.37,0,0,1,5.2-4.3,4.48,4.48,0,0,1,3.5,4.3v8.6a4.3,4.3,0,0,1-3.5,4.3,4.37,4.37,0,0,1-5.2-4.3Z"/><path class="cls-5" d="M1745,68.6a4.37,4.37,0,0,1,5.2-4.3,4.48,4.48,0,0,1,3.5,4.3v8.6a4.3,4.3,0,0,1-3.5,4.3,4.37,4.37,0,0,1-5.2-4.3Z"/><path class="cls-7" d="M1593,77.2a4.37,4.37,0,0,1,5.2-4.3,4.48,4.48,0,0,1,3.5,4.3h0a4.3,4.3,0,0,1-3.5,4.3,4.37,4.37,0,0,1-5.2-4.3Z"/><path class="cls-6" d="M1636.4,77.2a4.37,4.37,0,0,1,5.2-4.3,4.48,4.48,0,0,1,3.5,4.3h0a4.3,4.3,0,0,1-3.5,4.3,4.37,4.37,0,0,1-5.2-4.3Z"/><path class="cls-7" d="M1810.2,77.2a4.37,4.37,0,0,1,5.2-4.3,4.48,4.48,0,0,1,3.5,4.3h0a4.3,4.3,0,0,1-3.5,4.3,4.37,4.37,0,0,1-5.2-4.3Z"/><path class="cls-6" d="M1831.9,77.2a4.37,4.37,0,0,1,5.2-4.3,4.48,4.48,0,0,1,3.5,4.3h0a4.3,4.3,0,0,1-3.5,4.3,4.37,4.37,0,0,1-5.2-4.3Z"/><path class="cls-7" d="M1679.9,77.2a4.37,4.37,0,0,1,5.2-4.3,4.48,4.48,0,0,1,3.5,4.3h0a4.3,4.3,0,0,1-3.5,4.3,4.37,4.37,0,0,1-5.2-4.3Z"/><path class="cls-1" d="M1723.3,77.2a4.37,4.37,0,0,1,5.2-4.3,4.48,4.48,0,0,1,3.5,4.3h0a4.3,4.3,0,0,1-3.5,4.3,4.37,4.37,0,0,1-5.2-4.3Z"/><path class="cls-6" d="M1766.7,77.2a4.37,4.37,0,0,1,5.2-4.3,4.48,4.48,0,0,1,3.5,4.3h0a4.3,4.3,0,0,1-3.5,4.3,4.37,4.37,0,0,1-5.2-4.3Z"/><path class="cls-3" d="M1818.9,37.9a4.37,4.37,0,0,0-5.2-4.3,4.48,4.48,0,0,0-3.5,4.3v8.6a4.3,4.3,0,0,0,3.5,4.3,4.37,4.37,0,0,0,5.2-4.3Z"/><path class="cls-1" d="M1797.2,46.5a4.37,4.37,0,0,0-5.2-4.3,4.48,4.48,0,0,0-3.5,4.3h0a4.3,4.3,0,0,0,3.5,4.3,4.37,4.37,0,0,0,5.2-4.3Z"/><path class="cls-7" d="M1753.8,37.9a4.37,4.37,0,0,0-5.2-4.3,4.48,4.48,0,0,0-3.5,4.3v8.6a4.3,4.3,0,0,0,3.5,4.3,4.37,4.37,0,0,0,5.2-4.3Z"/><path class="cls-1" d="M1732,37.9a4.37,4.37,0,0,0-5.2-4.3,4.48,4.48,0,0,0-3.5,4.3v8.6a4.3,4.3,0,0,0,3.5,4.3,4.37,4.37,0,0,0,5.2-4.3Z"/><path class="cls-1" d="M1580,37.9a4.37,4.37,0,0,0-5.2-4.3,4.48,4.48,0,0,0-3.5,4.3v8.6a4.3,4.3,0,0,0,3.5,4.3,4.37,4.37,0,0,0,5.2-4.3Z"/><path class="cls-7" d="M1558.3,37.9a4.37,4.37,0,0,0-5.2-4.3,4.48,4.48,0,0,0-3.5,4.3v8.6a4.3,4.3,0,0,0,3.5,4.3,4.37,4.37,0,0,0,5.2-4.3Z"/><path class="cls-6" d="M1623.4,37.9a4.37,4.37,0,0,0-5.2-4.3,4.48,4.48,0,0,0-3.5,4.3v8.6a4.3,4.3,0,0,0,3.5,4.3,4.37,4.37,0,0,0,5.2-4.3Z"/><path class="cls-1" d="M1775.5,46.5a4.37,4.37,0,0,0-5.2-4.3,4.48,4.48,0,0,0-3.5,4.3h0a4.3,4.3,0,0,0,3.5,4.3,4.37,4.37,0,0,0,5.2-4.3Z"/><path class="cls-1" d="M1710.3,46.5a4.37,4.37,0,0,0-5.2-4.3,4.48,4.48,0,0,0-3.5,4.3h0a4.3,4.3,0,0,0,3.5,4.3,4.37,4.37,0,0,0,5.2-4.3Z"/><path class="cls-8" d="M1840.6,46.5a4.37,4.37,0,0,0-5.2-4.3,4.48,4.48,0,0,0-3.5,4.3h0a4.3,4.3,0,0,0,3.5,4.3,4.37,4.37,0,0,0,5.2-4.3Z"/><path class="cls-1" d="M1536.6,46.5a4.37,4.37,0,0,0-5.2-4.3,4.48,4.48,0,0,0-3.5,4.3h0a4.3,4.3,0,0,0,3.5,4.3,4.37,4.37,0,0,0,5.2-4.3Z"/><path class="cls-8" d="M1688.6,46.5a4.37,4.37,0,0,0-5.2-4.3,4.48,4.48,0,0,0-3.5,4.3h0a4.3,4.3,0,0,0,3.5,4.3,4.37,4.37,0,0,0,5.2-4.3Z"/><path class="cls-2" d="M1666.9,46.5a4.37,4.37,0,0,0-5.2-4.3,4.48,4.48,0,0,0-3.5,4.3h0a4.3,4.3,0,0,0,3.5,4.3,4.37,4.37,0,0,0,5.2-4.3Z"/><path class="cls-1" d="M1645.2,46.5a4.37,4.37,0,0,0-5.2-4.3,4.48,4.48,0,0,0-3.5,4.3h0a4.3,4.3,0,0,0,3.5,4.3,4.37,4.37,0,0,0,5.2-4.3Z"/><path class="cls-1" d="M1601.7,46.5a4.37,4.37,0,0,0-5.2-4.3,4.48,4.48,0,0,0-3.5,4.3h0a4.3,4.3,0,0,0,3.5,4.3,4.37,4.37,0,0,0,5.2-4.3Z"/><path class="cls-4" d="M1471.1,7.1a4.37,4.37,0,0,0-5.2-4.3,4.48,4.48,0,0,0-3.5,4.3v8.6a4.3,4.3,0,0,0,3.5,4.3,4.37,4.37,0,0,0,5.2-4.3Z"/><path class="cls-1" d="M1492.9,15.7a4.37,4.37,0,0,0-5.2-4.3,4.48,4.48,0,0,0-3.5,4.3h0a4.3,4.3,0,0,0,3.5,4.3,4.37,4.37,0,0,0,5.2-4.3Z"/><path class="cls-1" d="M1427.7,7.1a4.37,4.37,0,0,0-5.2-4.3,4.48,4.48,0,0,0-3.5,4.3v8.6a4.3,4.3,0,0,0,3.5,4.3,4.37,4.37,0,0,0,5.2-4.3Z"/><path class="cls-1" d="M1254,7.1a4.37,4.37,0,0,0-5.2-4.3,4.48,4.48,0,0,0-3.5,4.3v8.6a4.3,4.3,0,0,0,3.5,4.3,4.37,4.37,0,0,0,5.2-4.3Z"/><path class="cls-1" d="M1340.8,7.1a4.37,4.37,0,0,0-5.2-4.3,4.48,4.48,0,0,0-3.5,4.3v8.6a4.3,4.3,0,0,0,3.5,4.3,4.37,4.37,0,0,0,5.2-4.3Z"/><path class="cls-1" d="M1319.1,7.1a4.37,4.37,0,0,0-5.2-4.3,4.48,4.48,0,0,0-3.5,4.3v8.6a4.3,4.3,0,0,0,3.5,4.3,4.37,4.37,0,0,0,5.2-4.3Z"/><path class="cls-1" d="M1297.4,7.1a4.37,4.37,0,0,0-5.2-4.3,4.48,4.48,0,0,0-3.5,4.3v8.6a4.3,4.3,0,0,0,3.5,4.3,4.37,4.37,0,0,0,5.2-4.3Z"/><path class="cls-2" d="M1449.4,15.7a4.37,4.37,0,0,0-5.2-4.3,4.48,4.48,0,0,0-3.5,4.3h0a4.3,4.3,0,0,0,3.5,4.3,4.37,4.37,0,0,0,5.2-4.3Z"/><path class="cls-1" d="M1406,15.7a4.37,4.37,0,0,0-5.2-4.3,4.48,4.48,0,0,0-3.5,4.3h0a4.3,4.3,0,0,0,3.5,4.3,4.37,4.37,0,0,0,5.2-4.3Z"/><path class="cls-1" d="M1384.3,15.7a4.37,4.37,0,0,0-5.2-4.3,4.48,4.48,0,0,0-3.5,4.3h0a4.3,4.3,0,0,0,3.5,4.3,4.37,4.37,0,0,0,5.2-4.3Z"/><path class="cls-8" d="M1514.6,15.7a4.37,4.37,0,0,0-5.2-4.3,4.48,4.48,0,0,0-3.5,4.3h0a4.3,4.3,0,0,0,3.5,4.3,4.37,4.37,0,0,0,5.2-4.3Z"/><path class="cls-1" d="M1232.2,15.7a4.37,4.37,0,0,0-5.2-4.3,4.48,4.48,0,0,0-3.5,4.3h0A4.3,4.3,0,0,0,1227,20a4.37,4.37,0,0,0,5.2-4.3Z"/><path class="cls-1" d="M1362.5,15.7a4.37,4.37,0,0,0-5.2-4.3,4.48,4.48,0,0,0-3.5,4.3h0a4.3,4.3,0,0,0,3.5,4.3,4.37,4.37,0,0,0,5.2-4.3Z"/><path class="cls-6" d="M1275.7,15.7a4.37,4.37,0,0,0-5.2-4.3,4.48,4.48,0,0,0-3.5,4.3h0a4.3,4.3,0,0,0,3.5,4.3,4.37,4.37,0,0,0,5.2-4.3Z"/><path class="cls-1" d="M1245.2,68.6a4.37,4.37,0,0,1,5.2-4.3,4.48,4.48,0,0,1,3.5,4.3v8.6a4.3,4.3,0,0,1-3.5,4.3,4.37,4.37,0,0,1-5.2-4.3Z"/><path class="cls-2" d="M1223.5,77.2a4.37,4.37,0,0,1,5.2-4.3,4.48,4.48,0,0,1,3.5,4.3h0a4.3,4.3,0,0,1-3.5,4.3,4.37,4.37,0,0,1-5.2-4.3Z"/><path class="cls-1" d="M1288.7,68.6a4.37,4.37,0,0,1,5.2-4.3,4.48,4.48,0,0,1,3.5,4.3v8.6a4.3,4.3,0,0,1-3.5,4.3,4.37,4.37,0,0,1-5.2-4.3Z"/><path class="cls-1" d="M1462.4,68.6a4.37,4.37,0,0,1,5.2-4.3,4.48,4.48,0,0,1,3.5,4.3v8.6a4.3,4.3,0,0,1-3.5,4.3,4.37,4.37,0,0,1-5.2-4.3Z"/><path class="cls-1" d="M1332.2,68.6a4.37,4.37,0,0,1,5.2-4.3,4.48,4.48,0,0,1,3.5,4.3v8.6a4.3,4.3,0,0,1-3.5,4.3,4.37,4.37,0,0,1-5.2-4.3Z"/><path class="cls-6" d="M1375.5,68.6a4.37,4.37,0,0,1,5.2-4.3,4.48,4.48,0,0,1,3.5,4.3v8.6a4.3,4.3,0,0,1-3.5,4.3,4.37,4.37,0,0,1-5.2-4.3Z"/><path class="cls-6" d="M1419,68.6a4.37,4.37,0,0,1,5.2-4.3,4.48,4.48,0,0,1,3.5,4.3v8.6a4.3,4.3,0,0,1-3.5,4.3,4.37,4.37,0,0,1-5.2-4.3Z"/><path class="cls-5" d="M1266.9,77.2a4.37,4.37,0,0,1,5.2-4.3,4.48,4.48,0,0,1,3.5,4.3h0a4.3,4.3,0,0,1-3.5,4.3,4.37,4.37,0,0,1-5.2-4.3Z"/><path class="cls-7" d="M1310.4,77.2a4.37,4.37,0,0,1,5.2-4.3,4.48,4.48,0,0,1,3.5,4.3h0a4.3,4.3,0,0,1-3.5,4.3,4.37,4.37,0,0,1-5.2-4.3Z"/><path class="cls-7" d="M1484.1,77.2a4.37,4.37,0,0,1,5.2-4.3,4.48,4.48,0,0,1,3.5,4.3h0a4.3,4.3,0,0,1-3.5,4.3,4.37,4.37,0,0,1-5.2-4.3Z"/><path class="cls-8" d="M1505.8,77.2a4.37,4.37,0,0,1,5.2-4.3,4.48,4.48,0,0,1,3.5,4.3h0a4.3,4.3,0,0,1-3.5,4.3,4.37,4.37,0,0,1-5.2-4.3Z"/><path class="cls-7" d="M1353.8,77.2a4.37,4.37,0,0,1,5.2-4.3,4.48,4.48,0,0,1,3.5,4.3h0a4.3,4.3,0,0,1-3.5,4.3,4.37,4.37,0,0,1-5.2-4.3Z"/><path class="cls-1" d="M1397.2,77.2a4.37,4.37,0,0,1,5.2-4.3,4.48,4.48,0,0,1,3.5,4.3h0a4.3,4.3,0,0,1-3.5,4.3,4.37,4.37,0,0,1-5.2-4.3Z"/><path class="cls-8" d="M1440.7,77.2a4.37,4.37,0,0,1,5.2-4.3,4.48,4.48,0,0,1,3.5,4.3h0a4.3,4.3,0,0,1-3.5,4.3,4.37,4.37,0,0,1-5.2-4.3Z"/><path class="cls-3" d="M1492.9,37.9a4.37,4.37,0,0,0-5.2-4.3,4.48,4.48,0,0,0-3.5,4.3v8.6a4.3,4.3,0,0,0,3.5,4.3,4.37,4.37,0,0,0,5.2-4.3Z"/><path class="cls-3" d="M1471.1,46.5a4.37,4.37,0,0,0-5.2-4.3,4.48,4.48,0,0,0-3.5,4.3h0a4.3,4.3,0,0,0,3.5,4.3,4.37,4.37,0,0,0,5.2-4.3Z"/><path class="cls-1" d="M1427.7,37.9a4.37,4.37,0,0,0-5.2-4.3,4.48,4.48,0,0,0-3.5,4.3v8.6a4.3,4.3,0,0,0,3.5,4.3,4.37,4.37,0,0,0,5.2-4.3Z"/><path class="cls-4" d="M1406,37.9a4.37,4.37,0,0,0-5.2-4.3,4.48,4.48,0,0,0-3.5,4.3v8.6a4.3,4.3,0,0,0,3.5,4.3,4.37,4.37,0,0,0,5.2-4.3Z"/><path class="cls-8" d="M1254,37.9a4.37,4.37,0,0,0-5.2-4.3,4.48,4.48,0,0,0-3.5,4.3v8.6a4.3,4.3,0,0,0,3.5,4.3,4.37,4.37,0,0,0,5.2-4.3Z"/><path class="cls-7" d="M1297.4,37.9a4.37,4.37,0,0,0-5.2-4.3,4.48,4.48,0,0,0-3.5,4.3v8.6a4.3,4.3,0,0,0,3.5,4.3,4.37,4.37,0,0,0,5.2-4.3Z"/><path class="cls-1" d="M1449.4,46.5a4.37,4.37,0,0,0-5.2-4.3,4.48,4.48,0,0,0-3.5,4.3h0a4.3,4.3,0,0,0,3.5,4.3,4.37,4.37,0,0,0,5.2-4.3Z"/><path class="cls-1" d="M1384.3,46.5a4.37,4.37,0,0,0-5.2-4.3,4.48,4.48,0,0,0-3.5,4.3h0a4.3,4.3,0,0,0,3.5,4.3,4.37,4.37,0,0,0,5.2-4.3Z"/><path class="cls-1" d="M1514.6,46.5a4.37,4.37,0,0,0-5.2-4.3,4.48,4.48,0,0,0-3.5,4.3h0a4.3,4.3,0,0,0,3.5,4.3,4.37,4.37,0,0,0,5.2-4.3Z"/><path class="cls-1" d="M1362.5,46.5a4.37,4.37,0,0,0-5.2-4.3,4.48,4.48,0,0,0-3.5,4.3h0a4.3,4.3,0,0,0,3.5,4.3,4.37,4.37,0,0,0,5.2-4.3Z"/><path class="cls-8" d="M1340.8,46.5a4.37,4.37,0,0,0-5.2-4.3,4.48,4.48,0,0,0-3.5,4.3h0a4.3,4.3,0,0,0,3.5,4.3,4.37,4.37,0,0,0,5.2-4.3Z"/><path class="cls-1" d="M1319.1,46.5a4.37,4.37,0,0,0-5.2-4.3,4.48,4.48,0,0,0-3.5,4.3h0a4.3,4.3,0,0,0,3.5,4.3,4.37,4.37,0,0,0,5.2-4.3Z"/><path class="cls-2" d="M1275.7,46.5a4.37,4.37,0,0,0-5.2-4.3,4.48,4.48,0,0,0-3.5,4.3h0a4.3,4.3,0,0,0,3.5,4.3,4.37,4.37,0,0,0,5.2-4.3Z"/><path class="cls-2" d="M1406,46.6a4.37,4.37,0,0,0-5.2-4.3,4.48,4.48,0,0,0-3.5,4.3h0a4.3,4.3,0,0,0,3.5,4.3,4.37,4.37,0,0,0,5.2-4.3Z"/></svg>